<?xml version="1.0" encoding="UTF-8"?>
<svg id="Layer_2" data-name="Layer 2" xmlns="http://www.w3.org/2000/svg" viewBox="0 0 828.06 746.46">
  <defs>
    <style>
      .cls-1 {
        fill: #1778bc;
      }

      .cls-2 {
        fill: #87bd45;
      }

      .cls-3 {
        fill: #ffc84f;
      }

      .cls-4 {
        fill: #f35e46;
      }

      .cls-5 {
        fill: #1eabae;
      }
    </style>
  </defs>
  <g id="Layer_1-2" data-name="Layer 1">
    <g id="y8TVrF.tif">
      <g>
        <path class="cls-1" d="M748.05,398.99c-.9-1.15-1.23-3.47-1.45-7.31-.75-6.77,1-16.96-1.34-23.13-1.61-2.43-5.13-1.84-7.79-2.07-8.84-.03-26.09,0-34.58-.05-2.49-.07-5.47-.15-7.42-1.63-.44-.46-1.16-1.53-1.16-1.53,0,0,2.02-156.21.5-169.17-.62-1.14-2.28-1.47-5.23-1.57-3.03-.1-7.25,0-10.55-.23-8.92-.68-17.87-1.89-26.67-2.68-10.21-1-20.74-2.31-30.61-4.68-12.14-1.89-24.16-4.44-35.95-7.94-29.5-8.91-58.17-20.24-84.96-35.55-8.45-4.36-16.46-9.56-24.51-14.57-8.91-5.76-17.71-11.93-26.27-18.26-9.28-7.38-18.04-14.48-27.04-22.58-2.62-2.5-5.54-6.12-9.23-6.2-4.47.38-8.25,5.37-11.73,8.09-7.62,6.75-15.16,13.61-23.26,19.82-14.75,10.9-29.89,21.3-45.87,30.32-7.41,4.42-15.06,8.26-22.73,12.26-4.45,2.38-8.99,4.86-13.73,6.72-21.79,8.95-43.69,17.35-66.57,23.06-12.67,2.77-24.9,5.36-37.86,7.48-10.7,1.43-21.7,2.38-32.54,3.68-4.72.41-9.86,1.13-15.3,1.19-2.05.04-4.17,0-6.13.15-2.75.2-3.61.75-3.75,2.21-.13,16.49-.08,72.82-.09,99.6.04,3.81,1.49,69.06.5,70.26-.98,1.4-3.2,1.62-7.32,1.74-3.83.02-7.1.01-11.76,0-9.36.11-19.22-.26-28.51.14-4.75.22-5.61,3.03-5.82,7.59-.48,5.5-.03,11.93-.28,17.38-.55,4.96.35,8.73-4.71,8.96-12.56.23-43.63.03-63.3.09-3.61.18-11.72-.6-12.67.88-.84,1.18-.06,2.36.77,4.35,5.23,9.26,9.4,19.32,15.04,28.44,5.11,9.86,10.56,19.55,15.82,29.34,2.7,5.14,5.96,9.84,8.51,15.05,3.05,6.14,1.6,13.32-.82,19.45-2.56,6.68-4.82,13.52-7,20.34-4.39,13.47-8.88,27.18-13.54,40.49-.39,1.64.07,2.37,1.59,2.47,16.9.22,87.81-.03,104.82.06,3.42.1,3.47-.89,1.75-3.86-1.11-1.96-2.49-4.1-3.71-6.06-1.4-2.73-4.26-3.26-7.19-3.15-15.38-.09-60.17.14-74.31-.06-4.95-.24-1.98-6.21-1.28-9.23,2.69-8.13,5.53-15.99,8.19-24.15,2-5.66,3.87-11.4,5.7-17.12,2.03-6.11,4.93-12.59,1.97-18.89-4.27-9.22-9.31-18.05-14.37-26.72-5.33-10.92-11.93-21.39-16.8-32.57-1.08-3.52.54-4.37,4.22-4.46,11.52-.01,37.66-.08,48.22.01,1.98.02,3.22.28,3.14,2.5,1,14.07-1.44,83.84.72,102.52,1.32,3.47,5.04,4.62,8.63,4.54,9.49.04,32.1-.04,42.47-.03,4.18-.03,8.57.24,10.86,4.23,2.57,3.69,3.57,8.55,5.08,12.77,2.4,6.58,4.95,13.2,7.56,19.58,4.18,9.28,9.34,18.05,14.51,26.78,4.91,7.66,10.9,15.04,16.65,22.18,4.57,5.66,8.14,10.85,13.73,16.31,12.34,12.13,25.3,22.68,38.65,33.36,9.67,6.84,19.42,13.61,29.43,19.86,15.48,9.68,31.4,18.38,47.77,26.6,16.86,7.85,33.61,15.83,50.02,24.54,31.96,15.51,44.91,22.64,78.99,5.86,17.84-7.4,35.16-15.52,52.34-24.33,12.14-5.51,23.74-11.99,35.46-18.31,5.77-3.37,11.74-6.43,17.68-9.59,12.24-7.36,23.96-15.57,35.78-23.55,11.68-7.94,21.99-17.94,32.85-26.87,15.13-15.13,29.16-31.59,40.14-49.98,4.95-7.98,9.61-16.05,12.89-24.89,3.02-7.43,6.05-14.47,8.1-22.32,1.5-4.74,3.39-10.88,8.57-11.85,13.73-1.18,37.17.39,51.16-.64,3.46-.29,5.51-1.77,5.31-5.62-.01-17.37-.25-79.86.18-97.3.64-2.74,2.25-4.37,4.1-5.79,3.29-2.52,42.78-.78,50.08-.49,7.76.04,2.82,5.1.81,9.41-3.72,7.32-8.32,14.34-12.06,21.67-3.31,6.2-6.22,12.39-9.8,18.22-11.24,18.09-9.29,25.96-1.92,44.82,3.3,9.16,6.53,18.4,9.19,27.78.79,3.42,3.89,9.59,1.49,10.8-15.37,1.34-65.36-.37-82.3.65-1.89.37-2.92,1.92-3.69,3.57-1.04,2.98-3.65,6.75-3.44,9.93.36.8,1.51.77,2.35.82,3.79.03,11.22,0,20.47.01,8.99,0,19.7,0,30.41,0,22.89-.11,43.32.18,52.41-.1,7.93-1.17,2.48-12.36.72-17.02-3.93-10.96-7.59-22.07-11.54-33.01-2.32-7.47-5.64-14.59-6.78-22.35-1.08-6.4.96-12.71,4.21-18.14,2.12-3.87,4.13-7.8,6.17-11.6,5.64-9.65,11.08-19.49,16.13-29.48,2.92-5.49,5.95-10.96,8.88-16.45,1.98-3.52,5.44-9.6,5.54-12.21-.11-1.81-1.83-1.92-3.44-2-13-.05-59.78.02-72.33-.04-1.45-.1-3.34-.35-4.18-1.51l-.05-.06ZM663.01,530.5c-4.18,13.06-9.9,25.59-16.15,37.81-2.52,4.66-5.76,8.89-8.62,13.37-5.3,8.38-12.07,16-18.34,23.66-9.55,10.06-19.7,19.31-30.26,28.31-7.82,6.48-15.91,11.89-24.21,17.57-4.94,3.42-9.85,7.19-15,10.22-14.92,8.22-29.23,17.12-44.61,24.6-18.78,8.93-36.81,18.68-56.09,26.54-23.2,10.46-34.68,18.93-59.68,6.45-16.23-7.96-32.59-16.03-48.77-23.98-9.98-5.09-20.49-9.26-30.23-14.84-7.55-4.21-15.28-8.13-22.48-12.92-6.26-3.71-12.6-7.27-18.64-11.26-20.05-13.46-39.32-28.27-55.85-46.02-10.05-10.68-19.51-21.23-26.89-33.86-7.77-11.95-14.59-24.66-18.83-38.41-.91-2.63-2.04-6.4-2.37-8.64-.05-.59.09-.78.38-.83,13.09-.4,389.35.27,496.74,0,.17.02.29.06.34.16.11.21-.02.85-.42,1.98l-.03.09ZM730.96,508.36c-16.71.76-609.34.35-631.18.14-.77-.62-1.4-2.53-1.29-6.79-.1-23.11.06-98.97.01-113.31-.4-3.05,3.97-5.65,6.18-6.32,11.33.32,257.22-.48,315.08-.13,1.58-.03-.56-2.31-1.43-3.47-3.05-3.43-7.17-8.58-11.07-11.38-5.85-.56-232.14-.15-248.23-.21-4.01-.46-3.01-6.29-3.42-9.34-.31-8.28-1.31-115.57-1.34-132.1,2.5-2.56,9.77-.86,13.94-1.56,10.86-.84,21.4-2.94,32.22-3.9,25.66-4.19,50.6-10.95,75.15-19.25,32.14-13.02,63.21-28.72,91.42-48.61,9.54-7.14,19.29-14.24,28.51-21.71,3.86-3.63,8.5-7.72,12.73-11.2,3.7-3.36,8.13-3.58,11.85.13,11.57,10.92,24.23,20.68,37,30.12,10.97,7.79,22.34,14.87,33.61,22.02,15.46,8.74,31.72,16.31,47.84,23.79,13.7,6.05,28.2,9.99,42.45,14.51,23.61,6.73,48.04,10.52,72.37,13.6,5.36.69,12.07.63,17.05.72,1.94,0,4.88.44,4.56,2.14-.59,17.65-1.14,120.08-1.41,129.93-.03,3.87,0,10.52-4.88,10.68-16.3.01-137.6,0-154.2,0-1.41-.21-2.09.73-2.2,2.19.05,2.72-1.34,12.88,1.38,12.89,16.84.03,193.25-.06,212.97.05,2.37.48,4.31,1.32,4.41,4.72-.05,33.82.12,88.98-.06,121.63v.02Z"/>
        <path class="cls-1" d="M629.61,152.63c.02.05.02.1,0,.15-.1.35-1.71.39-3.87.04-3.42-.51-6.73-1.33-10.14-1.96-9.09-1.95-18.05-4.49-27-7.03-6.3-1.83-12.52-4.08-18.84-5.87-3.75-1.11-7.39-2.19-10.97-3.67-12.86-5.26-25.67-10.5-38.07-16.77-8.38-4.1-16.91-7.93-24.87-12.6-5.72-3.54-11.07-7.08-17.13-10.17-3.49-1.92-7.04-4.31-10.37-6.51-3.93-2.58-7.93-5.09-11.77-7.89-9.3-6.78-18.58-13.38-27.65-20.46-2.46-2.08-4.88-4.08-7.32-6.34-2.38-2.2-5.41-4.8-8.55-4.12-2.17.32-4.59,2.25-6.5,3.77-7.62,5.6-14.22,12.53-22.22,17.39-5.86,3.96-11.31,8.84-17.29,12.61-3.71,2.37-7.56,4.79-11.27,7.16-5.41,3.54-11.06,6.91-16.57,10.06-5.73,3.51-11.33,7.02-17.35,10.03-7.05,3.36-14.33,6.73-21.17,10.22-9.79,4.25-19.49,8.71-29.35,12.79-15.88,5.23-31.82,10.88-48.23,14.59-6.87,1.67-13.7,3.72-20.74,4.96-2.39.37-4.16.33-4.24-.11.15-1.5,4.95-2.91,6.57-3.74,5.46-2.37,10.64-4.96,15.89-7.65,5.42-2.63,11.31-5.16,16.54-8,9.79-5.23,19.29-10.73,28.73-16.52,4.19-2.32,8.34-4.63,12.36-7.24,5.81-3.81,11.68-7.52,17.31-11.59,11.8-8,23.59-16.18,34.76-25.06,8.99-7.18,18.51-13.9,26.8-21.88,3.94-3.81,8.29-6.99,12.44-10.55,4.03-3.7,7.72-7.48,11.8-10.97,8.74-8.04,17.27-17.25,25.71-25.33,2.28-2.26,5.06-5.03,7.92-4.23,2.03.37,4.61,2.88,6.48,4.77,8.95,8.76,17.97,17.59,26.49,26.85,14.65,12.76,29.08,25.5,44.47,37.25,7.88,6.37,15.96,12.31,24.04,18.41,4.72,3.56,9.87,6.63,14.74,10,12.24,8.84,25.26,16.44,38.23,24.14,8.07,4.24,15.55,9.22,23.74,13.22,6.85,3.21,13.54,6.44,20.07,9.86,4.16,1.96,8.47,3.78,12.72,5.62,1.19.44,3.69,1.93,3.66,2.34v.03Z"/>
        <path class="cls-1" d="M361.43,23.84c-.02.39-.19.54-.39.85-.52.63-1.24,1.4-1.93,1.96-3.43,2.68-6.73,5.74-9.96,8.58-4.28,3.48-8.67,6.84-13.2,10.01-4.39,2.85-8.29,6.3-12.55,9.32-2.16,1.41-4.22,2.86-6.36,4.25-4.88,2.95-9.22,6.57-14.04,9.62-3.52,2.01-7.1,3.74-10.66,5.72-3.22,1.74-6.18,3.8-9.31,5.72-2.13,1.2-4.12,2.36-6.24,3.56-8.13,4.78-16.94,8.18-25.41,12.29-10.72,4.52-21.05,9.81-32.18,13.25-3.79,1.27-7.42,2.85-11.23,4.14-3.36,1.05-6.82,1.9-10.17,2.99-16.4,5.58-33.58,9.69-50.56,13.21-2.53.58-5.5.97-7.9,1.43-3.27.49-5.22.73-5.34-2.32-.37-8.68,0-26.2-.12-34.66-.02-1.24.09-2.61.69-3.54,1.18-1.75,5.3-1.81,7.8-2.21,5.69-.86,12.1-.97,17.84-1.66,6.55-1.24,12.88-2.25,19.45-2.97,9.01-.81,17.17-3.72,26.15-4.72,5.19-.79,10.15-2.49,15.27-3.71,8.99-1.83,17.74-4.57,26.65-6.66,7.22-1.56,14.35-3.88,21.21-6.45,8.7-2.51,16.89-5.94,25.35-9.14,6.62-2.52,13.07-5.13,19.62-7.7,5.99-1.98,11.31-4.4,16.81-6.96,6.92-3.31,13.74-6.64,20.58-10.09,2.28-1.19,4.43-2.68,6.75-3.73,1.9-.85,3.35-.99,3.4-.42v.04Z"/>
        <path class="cls-1" d="M694.15,89.28c1.78.82,1.65,2.91,1.69,4.66,0,7.71.03,25.08-.02,32.78-.02,4.3-.84,4.89-5.82,4.03-12.69-2.04-25.56-5.29-38.05-8.44-8.23-2.51-16.46-4.68-24.64-7.36-3.55-.96-7.22-1.97-10.57-3.16-16.06-5.86-31.67-12.72-47.07-20.07-3.92-1.94-8.26-3.47-11.99-5.61-2.9-1.52-5.73-3.04-8.55-4.71-6.03-3.13-11.6-7.06-17.39-10.56-6.48-3.9-13.25-7.17-19.25-11.8-4.39-3.07-8.61-6.28-12.9-9.55-5.67-4.05-11.47-7.57-16.42-12.35-3.14-2.5-6.69-4.8-9.65-7.69-1.62-1.53-2.71-3.07-2.75-3.86-.28-1.36,2.96-.07,4.22.56,9.24,4.63,18.21,9.65,27.78,13.57,8.11,4.05,17.18,6.96,25.66,10.34,14.27,5.81,28.65,11.15,43.42,15.68,15.32,4.13,30.89,7.65,46.21,11.79,5.88,1.39,12.6,1.94,18.22,3.56,10.71,2.44,21.64,2.92,32.41,5.15,8.41,1.09,17.41,1.28,25.36,3l.1.05Z"/>
        <path class="cls-1" d="M508.96,392.87c1.63,2.03-6.73,4.57-8.5,5.22-7.25,2.68-15.05,3.06-22.76,2.59-7.99-.29-15.55-3.19-22.66-6.76-13.62-7.01-24.97-18.38-35.22-29.7-3.82-4.96-7.61-9.55-11.79-14.27-9.35-10.36-17.4-21.15-26.58-31.57-2.48-2.63-4.65-5.09-6.71-7.97-2.74-3.76-7.33-7.88-6.29-12.61.59-2.54,2.28-4.5,3.87-6.49,3.43-4.61,7.04-9.3,10.57-13.81,4.19-5.23,8.13-9.91,11.91-15.15,3.38-4.95,7.3-9.68,11.17-14.15,1.11-1.4,2.09-2.9,3.16-4.33,1.21-1.66,2.56-3.44,3.01-5.46,2.05-5.52-10.55-8.95-1.11-9.58,7.36-.07,24.53-.02,32.62-.03,1.65-.06,6.91.47,3.17,2.15-2.82,1.34-6.66,1.68-9.57,3.11-3.57,1.62-6.88,4.23-9.7,7.01-3.92,4.04-7.35,8.79-10.89,13-3.29,3.68-6.82,7.35-10.07,11.23-3.64,4.81-7.89,8.83-11.63,13.57-2.14,2.82-3.09,5.86-1.44,8.79.85,1.69,2.13,3.25,3.33,4.7,3.81,4.59,7.72,9,11.36,13.75,8.71,9.99,16.61,20.49,25.44,30.4,6.52,7.79,12.46,15.78,18.93,23.58,2.53,3.03,5.63,5.6,8.61,8.22,5.82,5.44,10.6,10.01,17.25,13.94,5.23,3.22,11.13,5.62,17.26,7.09,3.34,1,7.08,1.66,10.42,2.3,1.39.33,2.32.72,2.79,1.16l.05.05Z"/>
        <path class="cls-1" d="M374.71,230.74c-3.64,2.39-10.05,3.82-11.25,8.69-.33,2.45-.1,4.31-.17,8.08.02,28.94-.03,90.52.02,103.46.02,3.95,4.17,6.33,7.5,7.82,1.07.63,5.75,1.9,3.71,2.27-12.13.57-40.45.18-53.68.16-2.48-.23-2.64-.41.32-1.49,1.77-.66,3.93-1.51,5.53-2.7,2.99-2.55,5.71-6.03,5.61-9.91-.02-15.44.04-91.99-.03-104.98-.15-3.51-3.13-6.58-6.2-8.37-1.23-.95-10.61-3.62-6.42-4.66,10.59-.84,32.51-.04,46.86-.31,2.04.03,11.61-.47,8.26,1.89l-.07.05Z"/>
        <path class="cls-1" d="M515.7,286.44c-2,1.41-6.16,2.99-8.16,5.05-2.56,2.59-4.97,5.92-4.87,9.47-.02,9.55,0,18.18-.01,31.25,0,18.8.02,39.79-.01,46.79.11,3.32-2.74,2.55-5.13,2.01-5.17-1.19-10.24-3.03-14.71-5.81-1.6-.94-3.3-2.14-4.78-3.21-2.75-1.9-5.11-4.3-4.77-7.89,0-12.22.07-54.46.07-66.24.06-2.86-1.08-4.77-3.39-6.74-2.04-1.69-6.89-3.77-8.49-5.02-1.67-1.26,2.04-1.63,3.51-1.6,9.07,0,31.39,0,43.49,0,2.01-.04,10.57-.36,7.33,1.9l-.08.05Z"/>
        <path class="cls-1" d="M629.56,483.18c1.12,2.36-26.12,1.75-26.06.19,4.07-9.5,1.35-20.49.57-30.6-.25-2.33-.05-7.99-2.09-8.9-4.72,4.15-7.12,11.97-10.98,17.24-4.3,6.88-8.36,14.14-11.39,21.61-3.8,3.88-10.6-14-13.23-16.65-18.05-30.9-13.35-25.81-18.28,4.81-1.96,4.4,3.41,12.33.96,13.05-2.67.41-22.59,2.35-12.72-2.84,7.55-10.43,6.96-28.83,8.78-44.08.45-3.76,2.55-18.61,3.19-21.31,1.28-5.39,3.75-6.03,9.33,5.43,4.32,7.47,9.04,14.64,13.61,21.93,2.89,3.31,8.11,20.31,13.57,14.35,6.92-10.94,13.66-22.09,19.82-33.55,2.82-3.47,4.25-12.4,9.23-12.13,5.42,12.01,2.77,27.48,6.71,40.36,2.13,10.36-.45,24.08,8.95,31.03l.04.05Z"/>
        <path class="cls-1" d="M448.62,435.07c-2.16-4.43-4.52-9.22-8.1-12.73-3.4-3.22-7.64-5.48-11.93-7.29-4.8-2.17-7.94-2.85-13.05-2.75-7.78,0-21.68,0-30.71,0-1.53.15-10.55-.57-7.79,1.36,1.91,1.47,4.71,2.54,5.08,5.26.65,10.78.08,40.54.26,52.89-.02,2.16-.08,4.47-1.62,6.05-3.71,3.57-7.56,4.98,1.21,4.96,6.74,0,18.1.01,25.21.02,5.38.14,9.25-.73,14.35-1.82,5.19-.95,10.43-2.08,14.71-5.09,4.16-2.84,7.51-6.9,9.91-11.3,2.19-4,3.44-6.55,3.71-12.21.18-5.4.61-12.29-1.2-17.21l-.05-.13ZM432.34,456.57c-1.48,6.25-3.82,12.94-9.06,16.98-5.25,3.98-11.66,5.39-18.24,5.25-2.3-.19-5.89.49-7.18-1.32-.88-10.9-.1-42.5-.3-58.05-.09-3.15,3.69-2.46,6.33-2.63,3.04,0,6.36-.06,9.24.22,7.77.57,14.12,7.2,17.04,14,3.51,7.47,3.34,17.36,2.21,25.39l-.03.15Z"/>
        <path class="cls-1" d="M520.38,474.03c-1.29,3.73-1.45,8.61-6.01,8.96-10.38.42-33.49.04-44.42.15-1.26-.08-3.72.11-4-.83,3.92-4.7,7.25-4.15,6.99-12.43-.14-12.2.33-37.19-.21-49.29-.28-2.44-1.52-3.87-3.59-5.31-1.52-1.09-3.02-2.09-3.11-2.55-.01-.07,0-.13.04-.19,2.55-1.07,8.86-.46,12.99-.61,6.65,0,14.06.01,20.69.02,2.98,0,5.64.05,8.5-.13,3.61-.17,6.32-1.01,7.93,1.57,1.17,1.92,1.4,4.32,1.43,6.57-.35,8.99-1.32,6.33-4.61.51-1.63-2.82-4.88-3.51-7.93-3.76-4.51-.2-10.09-.76-14.53.43-2.28.89-2.24,3.56-2.33,5.71-.05,3.91-.02,9.94-.02,14.24.12,2.31-.24,5.36,1.99,6.7,1.09.61,2.42.75,3.7.85,4.14.15,8.9.25,12.39-1.15,3.65-1.26,5.16-10.34,5.53-.86.08,4.21.27,9.19-.34,13.36-.28,1.41-.88.81-1.75-.53-2.38-4.56-7.73-4.5-12.27-4.62-6.46-.03-9.69.02-9.25,7.87.02,4.49-.07,10.06.05,14.61-.13,4.79,2.8,5.82,7.51,5.75,4.63-.12,9.64-.19,13.83-2.32,2.52-1.32,5.35-3.28,7.35-5.75,5.08-6.57,5.34-4.4,3.5,2.87l-.04.16Z"/>
        <path class="cls-1" d="M335.63,480.34c-.35.75-1.71,1.92-1.36,2.6.88.79,3.14.67,4.76.77,4.99.06,10.52,0,15.77.02,3.78-.09,11.9.44,8.68-2.01-8.3-5.55-8.85-10.77-12.56-19.42-4.56-8.85-8.85-17.79-13-26.84-2.97-5.84-5.87-11.82-8.47-17.85-2.2-5.71-4.76-7.86-7.88-1.21-5.75,13.41-12.7,25.88-17.81,39.69-2.08,5.05-4.6,9.82-6.76,14.76-1.42,3.65-3.7,7.17-6.95,9.39-1.95,1.57-3.94,2.8.11,3.22,4.14.3,9.55.69,13.66-.46,1.69-.69.07-2.97-.2-5.96-.38-2.85.94-6.34,1.9-8.95.84-2.22,2.17-4.32,4.62-4.97,3.22-.96,6.82-.65,11.08-.72,4.12.12,9.22-.31,12.02,3.22,2.73,4.2,5.59,10.24,2.44,14.6l-.07.1ZM311.12,457.66c-.32-.51-.25-.87-.18-1.46.46-1.96,1.59-3.8,2.3-5.88,1.9-4.57,3.95-9.32,6.23-13.63.44-.64.73-1.19,1.45-1.42,1.74-.06,2.52,2.9,3.24,4.28,2.01,4.57,4.04,9.2,5.35,14.09,1.97,5.76-2.85,5.1-6.85,5.21-2.28,0-5.08.03-7.18-.05-2.3-.06-3.74-.3-4.31-1.06l-.05-.08Z"/>
        <path class="cls-1" d="M170.29,482.43c.6,1.11,1.69.89,3.34,1.15,2.54.18,5.4.1,8.06.12,4.83-.25,17.64.81,16.51-1.4-1.28-1.42-4.63-3.78-6.07-5.73-2.92-4.11-4.34-9.12-6.62-13.51-3.69-6.76-6.91-13.43-9.94-20.67-3.15-6.33-6.05-12.75-9.04-19.16-7.1-17.84-8.57-11.78-14.57,1.93-3.58,7.68-7.33,15.6-10.56,23.51-3.51,7.74-7.02,15.39-10.48,23.14-1.43,3.42-4.36,6.55-7.1,8.73-1.96,1.71-2.24,2.46,1.01,2.87,3.49.4,8.05.41,11.63,0,3.79-.39,2.33-1.74,1.43-5.56-.42-1.96-.03-4.01.66-5.89,1.01-2.59,1.83-6.04,3.74-7.62,3.81-2.69,7.87-1.67,13.12-1.91,3.02.04,6.28-.19,9.16.6,3.51.94,4.31,4.07,5.35,7.11.57,1.8,1.28,3.79,1.36,5.62.2,2.69-1.03,4.54-.99,6.59l.02.07ZM145.56,457.45c-.36-.55-.33-.93-.29-1.57.39-2.12,1.52-4.28,2.3-6.42,1.81-4.21,3.75-8.8,5.88-12.8.44-.64.72-1.18,1.44-1.41,2.08.04,3.07,4.45,4.03,6.2,1.69,3.92,3.36,7.93,4.75,12,1.9,4.7-.34,5.33-4.62,5.36-2.94.02-6.85.06-9.46-.05-2.03-.08-3.38-.47-3.96-1.22l-.06-.08Z"/>
        <path class="cls-1" d="M275.41,467.7c-.66,7.55-9.65,12.82-16.44,14.47-5.38.98-11.68.68-16.98.64-4.23-.12-8.33-.75-12.22-2.13-8.2-2.42-14.95-7.9-19.12-15.35-3.52-5.52-4.26-11.09-4.22-17.78.1-5.26.24-9.47,2.29-13.95,1.87-4.2,4.3-9.23,8.02-12.47,7.14-5.94,14.62-9.03,24.38-9.84,6.92-.79,28.3-.12,31.19,6.95,1.36,2.87,1.82,12.1-.45,12.6-1.67-.69-2.55-3.22-4.03-5.41-1.13-1.71-2.37-3.31-3.93-4.66-6.13-5.67-16.79-6.64-24.35-4.01-5.11,2.22-9.56,6.83-12.45,11.36-6.3,12.49-5.75,28.58,1.35,40.61,5.57,9.59,17.61,12.24,27.85,9.45,9.12-1.91,13.2-10.39,15.87-18.48,1.2-3.14,2.19-4.67,2.86.67.36,2.33.58,5.04.39,7.17v.16Z"/>
        <path class="cls-1" d="M708.86,413.11c-.04.83-1.95,1.5-2.85,2.14-7.67,4.01-10.59,12.71-15.72,19.09-2.24,3.1-4.22,6.33-6.44,9.46-1.01,1.38-2.02,2.75-2.67,4.28-1.7,3.68-1.1,11.88-1.2,16.94.22,4.41-.7,9.17,1.36,12.83,1.35,2.11,4.15,3.2,4.22,4.01-.18.62-.96.55-1.63.7-2.76.3-5.64.22-8.61.23-3.89,0-8.61.01-12.3-.01-3.25-.05-5.26-.26-5.54-.73-.48-.77,2.51-1.85,4.01-3.99.8-1.12,1.11-2.34,1.29-3.75.44-5.68.13-12.68.2-18.45-.02-2.01-.16-4.16-.62-6.02-.52-2.42-2.15-4.55-3.59-6.53-1.65-2.37-3.15-4.73-4.77-7.13-2.28-3.53-4.55-6.93-6.8-10.54-1.77-2.62-3.44-5.38-5.64-7.68-2.05-2.32-5.63-3.43-7.66-4.9-.16-.36.81-.54,3.07-.67,5.7-.21,11.91-.04,17.62-.09,3.4-.02,6.36.02,7.88.27.49.07,1.12.22,1.38.53.32.43-.17.98-.42,1.38-.42.6-1.01,1.38-1.33,2.14-1.61,3.6,1.86,7.06,3.46,10.08,2.49,3.83,4.46,7.93,6.77,11.89,1.6,2.78,3.74,5.39,6.52,2.03,2.47-3.15,4.55-6.71,6.63-10.13,1.88-3.74,4.94-7.05,5.78-11.22.4-1.97-.91-4.45-.86-5.48-.06-.84,1.42-1.13,2.32-1.22,2.98-.34,9.66-.34,13.24-.1,1.69.11,2.68.31,2.88.62l.02.03Z"/>
        <path class="cls-1" d="M461.03,650.4c.12.37-.97,1.37-1.45,1.73-5.07,3.83-10.36,7.78-15.55,11.48-2.58,1.93-5.66,3.64-6.88,6.77-3.78,4.3,14.4,38.08,1.73,29.6-4.55-3.25-9.05-6.55-13.55-9.92-2.7-2.01-5.73-4.45-9.24-4.05-1.77.24-3.34,1.08-4.87,2.02-4.31,2.87-8.66,6.25-12.75,9.25-9.01,7.62-9.69,4.24-6.43-5.32,1.65-4.7,3.06-9.59,4.33-14.47,1.22-4.44.13-9.11-3.76-11.8-4.84-3.56-10.05-6.99-14.84-10.68-1.52-1.24-4.08-2.69-4.74-4.42-.05-.79,1.44-1.13,4.38-1.22,6.97-.28,17.62.36,24.4-.31,3.92-.41,4.89-3.79,6-6.97,1.18-3.4,2.4-6.88,3.5-10.32,2.14-5.96,5.29-24.04,9.05-7.28,1.42,5.58,3.29,10.93,5.1,16.36.85,2.35,1.27,5.15,3.11,6.89,3.12,2.25,6.46,1.4,11.1,1.59,2.51,0,5.26,0,7.91,0,3.22.01,6.3-.02,8.69.02,3.07.08,4.68.31,4.75,1.01v.05Z"/>
        <path class="cls-1" d="M340.48,612.77c.47.8-1.46,2.51-2.72,3.51-4.46,3.66-10.39,6.64-13.44,11.74-4.54,6.43,14.33,34.21-4.38,19-9.34-7.79-14.32-7.48-23.54.21-1.77,1.2-6.63,5.79-8.31,4.09-.67-.73-.19-3.29.4-4.92,1.26-5.84,6.7-14.62,2.87-19.94-1.12-1.45-2.78-2.64-4.23-3.7-1.83-1.4-3.71-2.78-5.54-4.09-1.91-1.5-6-3.92-5.43-5.94.38-.67,1.73-1.07,4-1.28,4.3-.35,9.71.02,14.17-.23,4.74-.29,6.38-2.36,7.54-6.63,1.09-3.45,2.28-6.82,3.31-10.32,1.59-5.23,3.94-5.57,5.88-.14,1.28,3.92,2.53,8.25,3.81,12.07.56,1.6,1.44,3,2.93,3.87,5.31,2.37,12.99.68,18.68,1.36,2.29.21,3.67.59,4,1.29l.03.06Z"/>
        <path class="cls-1" d="M557.52,612.81c.34.85-.65,2.24-2.21,3.67-3.9,3.76-9.63,5.99-13.09,10.22-3.81,5.29,1.8,14.48,3.22,20.25,2.49,7.93-3.86,4.12-7.26.99-11.8-10.14-13.05-9.9-25.13-.33-1.58,1.38-4.98,4.38-6.26,1.92-.4-1.06-.26-2.02-.1-3.36.9-5.92,5.23-12.17,2.82-18.28-1.94-4.4-7.39-7.09-11.22-10.01-1.78-1.33-4.83-3.13-5.2-5.01.55-2.56,12.26-1.28,15.09-1.6,3.45-.14,6.98.11,9.27-2.44,2.54-3.64,3.15-8.74,4.8-13.27.73-2.33,2.76-7.99,5.43-4.27,1.8,3.19,2.69,7.4,3.91,10.93.77,2.75,1.45,5.92,3.33,7.4,1.47,1.37,5.1,1.73,7.7,1.65,3.39.05,7.85-.12,11.02.15,2.17.21,3.51.6,3.85,1.32l.03.07Z"/>
        <g>
          <path class="cls-2" d="M486.86,224.39c-4.1-.09-7.95-.38-11.47-.84,2.45-8.67,6.68-14.87,11.47-16.07v16.91Z"/>
          <path class="cls-3" d="M501.81,223.74c-3.55.41-7.42.65-11.52.69v-16.94c4.82,1.2,9.06,7.48,11.52,16.26Z"/>
          <path class="cls-4" d="M505.27,223.29c-1.65-6.18-4.17-11.26-7.26-14.68,7.14,2.09,13.29,6.49,17.58,12.34-2.94.94-6.4,1.73-10.32,2.33Z"/>
          <path class="cls-5" d="M471.94,223.01c-3.86-.65-7.24-1.53-10.04-2.52,4.27-5.61,10.28-9.85,17.23-11.88-3.06,3.36-5.54,8.36-7.19,14.4Z"/>
          <path class="cls-3" d="M486.86,239.87h-13.72c.05-4.6.55-9.01,1.42-13.01,3.96.55,8.14.88,12.29.96v12.05Z"/>
          <path class="cls-2" d="M502.63,227.08c.84,3.95,1.32,8.27,1.37,12.79h-13.72v-12.02c4.14-.03,8.33-.29,12.34-.77Z"/>
          <path class="cls-4" d="M471.13,226.33c-.88,4.15-1.39,8.72-1.44,13.54h-14.56c.14-6.01,1.87-11.64,4.79-16.46,3.26,1.22,7.09,2.2,11.21,2.92Z"/>
          <path class="cls-5" d="M486.86,255.35c-4.03.09-8.05.39-11.91.89-.98-3.95-1.6-8.33-1.77-12.94h13.68v12.05Z"/>
          <path class="cls-2" d="M471.51,256.78c-3.9.67-7.54,1.54-10.69,2.66-3.16-4.67-5.17-10.18-5.6-16.14h14.52c.15,4.82.77,9.37,1.77,13.47Z"/>
          <path class="cls-4" d="M472.4,260.08c1.65,5.32,3.97,9.72,6.73,12.77-6.39-1.87-11.98-5.6-16.14-10.54,2.69-.88,5.85-1.63,9.41-2.23Z"/>
          <path class="cls-5" d="M486.86,258.79v15.19c-4.48-1.12-8.46-6.63-10.97-14.42,3.38-.41,7.06-.69,10.97-.77Z"/>
          <path class="cls-3" d="M503.97,243.3c-.17,4.53-.77,8.84-1.72,12.74-3.9-.45-7.95-.69-11.96-.72v-12.02h13.68Z"/>
          <path class="cls-4" d="M501.31,259.39c-2.51,7.9-6.51,13.46-11.02,14.59v-15.23c3.91.03,7.6.26,11.02.64Z"/>
          <path class="cls-2" d="M504.81,259.82c3.62.53,6.88,1.24,9.7,2.06-4.21,5.17-9.92,9.05-16.5,10.97,2.82-3.11,5.15-7.6,6.8-13.03Z"/>
          <path class="cls-4" d="M521.92,243.3c-.41,5.75-2.3,11.11-5.29,15.67-3.28-1.05-7-1.87-10.93-2.45.94-4.03,1.54-8.48,1.7-13.22h14.52Z"/>
          <path class="cls-5" d="M507.45,239.87c-.05-4.72-.55-9.2-1.39-13.27,4.15-.65,8.07-1.54,11.45-2.7,2.75,4.72,4.38,10.16,4.51,15.96h-14.57Z"/>
        </g>
      </g>
    </g>
  </g>
</svg>