<svg id="vuesax_bold_app_store" data-name="vuesax/bold/app_store" xmlns="http://www.w3.org/2000/svg" width="24" height="24" viewBox="0 0 24 24">
  <g id="xiaomi">
    <path id="Vector" d="M0,0H24V24H0Z" fill="none" opacity="0"/>
    <g id="Group_5" data-name="Group 5" transform="translate(2 2)">
      <path id="Subtraction_7" data-name="Subtraction 7" d="M-4398-1443a9.933,9.933,0,0,1-7.071-2.929A9.933,9.933,0,0,1-4408-1453a10.011,10.011,0,0,1,10-10,10.011,10.011,0,0,1,10,10A10.011,10.011,0,0,1-4398-1443Zm1.08-13.546h0a2.994,2.994,0,0,0-.492,1.649,2.97,2.97,0,0,0,.282,1.274l.256.445.558.964.949,1.644,1.276,2.213a.823.823,0,0,0,.713.411.815.815,0,0,0,.41-.111.819.819,0,0,0,.383-.5.815.815,0,0,0-.082-.624l-.8-1.391h1.217a.823.823,0,0,0,.822-.822.823.823,0,0,0-.822-.822h-2.166l-2.5-4.332Zm-5.423,6.222a1.518,1.518,0,0,0-.391.051l-.624,1.081a.824.824,0,0,0,.3,1.124.826.826,0,0,0,.411.111.824.824,0,0,0,.713-.411l.788-1.366A1.5,1.5,0,0,0-4402.343-1450.324Zm-1.411-1.869a.81.81,0,0,0-.581.241.814.814,0,0,0-.241.581.823.823,0,0,0,.822.823h7.479a1.237,1.237,0,0,0,.122-.534,1.223,1.223,0,0,0-.715-1.111h-2.842l1.716-2.973.949-1.645.877-1.519a.818.818,0,0,0,.082-.624.815.815,0,0,0-.383-.5.813.813,0,0,0-.409-.111.826.826,0,0,0-.713.41l-.4.7-.4-.7a.823.823,0,0,0-.712-.41.815.815,0,0,0-.41.111.824.824,0,0,0-.3,1.123l.877,1.519-2.665,4.618Z" transform="translate(4408 1463)" fill="#1a1818" stroke="rgba(0,0,0,0)" stroke-miterlimit="10" stroke-width="1"/>
    </g>
  </g>
</svg>
