<svg id="vuesax_bold_google-play" data-name="vuesax/bold/google-play" xmlns="http://www.w3.org/2000/svg" width="24" height="24" viewBox="0 0 24 24">
  <g id="google-play">
    <path id="BG_158" data-name="BG 158" d="M0,0H24V24H0Z" fill="none" opacity="0.58"/>
    <path id="Vector" d="M5.38,3.325,2.6,4.715a.5.5,0,0,1-.58-.09L.15,2.755a.5.5,0,0,1,0-.71l1.9-1.9a.5.5,0,0,1,.58-.09l2.75,1.38A1.05,1.05,0,0,1,5.38,3.325Z" transform="translate(16.02 9.625)"/>
    <path id="Vector-2" data-name="Vector" d="M10.25,4.816a.5.5,0,0,1,.13.8L8.71,7.286,8,8a.5.5,0,0,1-.71,0L.15.856a.5.5,0,0,1,.58-.8Z" transform="translate(6.05 3.674)"/>
    <path id="Vector-3" data-name="Vector" d="M0,17.173V.5A.5.5,0,0,1,.85.143l8.77,8.51a.5.5,0,0,1-.01.73L.84,17.543A.5.5,0,0,1,0,17.173Z" transform="translate(2 2.977)"/>
    <path id="Vector-4" data-name="Vector" d="M10.12,3.3.73,8a.5.5,0,0,1-.58-.8L7.2.15a.5.5,0,0,1,.71,0L10.26,2.5A.51.51,0,0,1,10.12,3.3Z" transform="translate(6.15 12.22)"/>
    <path id="Vector-5" data-name="Vector" d="M.03.03,0,0" transform="translate(16.89 15.21)"/>
    <path id="Vector-6" data-name="Vector" d="M0,0H24V24H0Z" fill="none" opacity="0"/>
  </g>
</svg>
