<?xml version="1.0" encoding="UTF-8"?>
<svg id="Layer_2" data-name="Layer 2" xmlns="http://www.w3.org/2000/svg" viewBox="0 0 74.21 74.21">
  <defs>
    <style>
      .cls-1 {
        fill: #505d61;
      }
    </style>
  </defs>
  <g id="Layer_2-2" data-name="Layer 2">
    <g>
      <g id="y8TVrF.tif">
        <path class="cls-1" d="M58.21,38.73c-.06-.07-.08-.22-.09-.46-.05-.43.06-1.07-.08-1.46-.1-.15-.32-.12-.49-.13-.56,0-1.65,0-2.18,0-.16,0-.35,0-.47-.1-.03-.03-.07-.1-.07-.1,0,0,.13-9.87.03-10.69-.04-.07-.14-.09-.33-.1-.19,0-.46,0-.67-.01-.56-.04-1.13-.12-1.68-.17-.65-.06-1.31-.15-1.93-.3-.77-.12-1.53-.28-2.27-.5-1.86-.56-3.67-1.28-5.37-2.25-.53-.28-1.04-.6-1.55-.92-.56-.36-1.12-.75-1.66-1.15-.59-.47-1.14-.91-1.71-1.43-.17-.16-.35-.39-.58-.39-.28.02-.52.34-.74.51-.48.43-.96.86-1.47,1.25-.93.69-1.89,1.35-2.9,1.92-.47.28-.95.52-1.44.77-.28.15-.57.31-.87.42-1.38.57-2.76,1.1-4.21,1.46-.8.17-1.57.34-2.39.47-.68.09-1.37.15-2.06.23-.3.03-.62.07-.97.07-.13,0-.26,0-.39,0-.17.01-.23.05-.24.14,0,1.04,0,4.6,0,6.29,0,.24.09,4.36.03,4.44-.06.09-.2.1-.46.11-.24,0-.45,0-.74,0-.59,0-1.21-.02-1.8,0-.3.01-.35.19-.37.48-.03.35,0,.75-.02,1.1-.03.31.02.55-.3.57-.79.01-2.76,0-4,0-.23.01-.74-.04-.8.06-.05.07,0,.15.05.27.33.58.59,1.22.95,1.8.32.62.67,1.24,1,1.85.17.32.38.62.54.95.19.39.1.84-.05,1.23-.16.42-.3.85-.44,1.29-.28.85-.56,1.72-.86,2.56-.02.1,0,.15.1.16,1.07.01,5.55,0,6.62,0,.22,0,.22-.06.11-.24-.07-.12-.16-.26-.23-.38-.09-.17-.27-.21-.45-.2-.97,0-3.8,0-4.69,0-.31-.01-.12-.39-.08-.58.17-.51.35-1.01.52-1.53.13-.36.24-.72.36-1.08.13-.39.31-.8.12-1.19-.27-.58-.59-1.14-.91-1.69-.34-.69-.75-1.35-1.06-2.06-.07-.22.03-.28.27-.28.73,0,2.38,0,3.05,0,.13,0,.2.02.2.16.06.89-.09,5.3.05,6.48.08.22.32.29.55.29.6,0,2.03,0,2.68,0,.26,0,.54.02.69.27.16.23.23.54.32.81.15.42.31.83.48,1.24.26.59.59,1.14.92,1.69.31.48.69.95,1.05,1.4.29.36.51.69.87,1.03.78.77,1.6,1.43,2.44,2.11.61.43,1.23.86,1.86,1.25.98.61,1.98,1.16,3.02,1.68,1.07.5,2.12,1,3.16,1.55,2.02.98,2.84,1.43,4.99.37,1.13-.47,2.22-.98,3.31-1.54.77-.35,1.5-.76,2.24-1.16.36-.21.74-.41,1.12-.61.77-.47,1.51-.98,2.26-1.49.74-.5,1.39-1.13,2.07-1.7.96-.96,1.84-2,2.54-3.16.31-.5.61-1.01.81-1.57.19-.47.38-.91.51-1.41.09-.3.21-.69.54-.75.87-.07,2.35.02,3.23-.04.22-.02.35-.11.34-.35,0-1.1-.02-5.04.01-6.15.04-.17.14-.28.26-.37.21-.16,2.7-.05,3.16-.03.49,0,.18.32.05.59-.23.46-.53.91-.76,1.37-.21.39-.39.78-.62,1.15-.71,1.14-.59,1.64-.12,2.83.21.58.41,1.16.58,1.75.05.22.25.61.09.68-.97.08-4.13-.02-5.2.04-.12.02-.18.12-.23.23-.07.19-.23.43-.22.63.02.05.1.05.15.05.24,0,.71,0,1.29,0h1.92c1.45,0,2.74.01,3.31,0,.5-.07.16-.78.05-1.08-.25-.69-.48-1.39-.73-2.09-.15-.47-.36-.92-.43-1.41-.07-.4.06-.8.27-1.15.13-.24.26-.49.39-.73.36-.61.7-1.23,1.02-1.86.18-.35.38-.69.56-1.04.13-.22.34-.61.35-.77,0-.11-.12-.12-.22-.13-.82,0-3.78,0-4.57,0-.09,0-.21-.02-.26-.1h0ZM52.84,47.04c-.26.82-.63,1.62-1.02,2.39-.16.29-.36.56-.54.84-.33.53-.76,1.01-1.16,1.49-.6.64-1.24,1.22-1.91,1.79-.49.41-1.01.75-1.53,1.11-.31.22-.62.45-.95.65-.94.52-1.85,1.08-2.82,1.55-1.19.56-2.33,1.18-3.54,1.68-1.47.66-2.19,1.2-3.77.41-1.03-.5-2.06-1.01-3.08-1.52-.63-.32-1.29-.58-1.91-.94-.48-.27-.97-.51-1.42-.82-.4-.23-.8-.46-1.18-.71-1.27-.85-2.48-1.79-3.53-2.91-.63-.67-1.23-1.34-1.7-2.14-.49-.75-.92-1.56-1.19-2.43-.06-.17-.13-.4-.15-.55,0-.04,0-.05.02-.05.83-.03,24.6.02,31.38,0,.01,0,.02,0,.02.01,0,.01,0,.05-.03.12h0ZM57.13,45.64c-1.06.05-38.49.02-39.87,0-.05-.04-.09-.16-.08-.43,0-1.46,0-6.25,0-7.16-.03-.19.25-.36.39-.4.72.02,16.25-.03,19.9,0,.1,0-.04-.15-.09-.22-.19-.22-.45-.54-.7-.72-.37-.04-14.66,0-15.68-.01-.25-.03-.19-.4-.22-.59-.02-.52-.08-7.3-.08-8.35.16-.16.62-.05.88-.1.69-.05,1.35-.19,2.04-.25,1.62-.26,3.2-.69,4.75-1.22,2.03-.82,3.99-1.81,5.77-3.07.6-.45,1.22-.9,1.8-1.37.24-.23.54-.49.8-.71.23-.21.51-.23.75,0,.73.69,1.53,1.31,2.34,1.9.69.49,1.41.94,2.12,1.39.98.55,2,1.03,3.02,1.5.87.38,1.78.63,2.68.92,1.49.43,3.03.66,4.57.86.34.04.76.04,1.08.05.12,0,.31.03.29.14-.04,1.11-.07,7.59-.09,8.21,0,.24,0,.66-.31.67-1.03,0-8.69,0-9.74,0-.09-.01-.13.05-.14.14,0,.17-.08.81.09.81,1.06,0,12.21,0,13.45,0,.15.03.27.08.28.3,0,2.14,0,5.62,0,7.68h0Z"/>
        <path class="cls-1" d="M50.73,23.17s0,0,0,0c0,.02-.11.02-.24,0-.22-.03-.43-.08-.64-.12-.57-.12-1.14-.28-1.71-.44-.4-.12-.79-.26-1.19-.37-.24-.07-.47-.14-.69-.23-.81-.33-1.62-.66-2.41-1.06-.53-.26-1.07-.5-1.57-.8-.36-.22-.7-.45-1.08-.64-.22-.12-.44-.27-.65-.41-.25-.16-.5-.32-.74-.5-.59-.43-1.17-.85-1.75-1.29-.16-.13-.31-.26-.46-.4-.15-.14-.34-.3-.54-.26-.14.02-.29.14-.41.24-.48.35-.9.79-1.4,1.1-.37.25-.71.56-1.09.8-.23.15-.48.3-.71.45-.34.22-.7.44-1.05.64-.36.22-.72.44-1.1.63-.45.21-.91.43-1.34.65-.62.27-1.23.55-1.85.81-1,.33-2.01.69-3.05.92-.43.11-.87.24-1.31.31-.15.02-.26.02-.27,0,0-.09.31-.18.42-.24.35-.15.67-.31,1-.48.34-.17.71-.33,1.04-.51.62-.33,1.22-.68,1.81-1.04.26-.15.53-.29.78-.46.37-.24.74-.48,1.09-.73.75-.51,1.49-1.02,2.2-1.58.57-.45,1.17-.88,1.69-1.38.25-.24.52-.44.79-.67.25-.23.49-.47.75-.69.55-.51,1.09-1.09,1.62-1.6.14-.14.32-.32.5-.27.13.02.29.18.41.3.57.55,1.13,1.11,1.67,1.7.93.81,1.84,1.61,2.81,2.35.5.4,1.01.78,1.52,1.16.3.22.62.42.93.63.77.56,1.6,1.04,2.42,1.52.51.27.98.58,1.5.84.43.2.86.41,1.27.62.26.12.54.24.8.35.07.03.23.12.23.15h0Z"/>
        <path class="cls-1" d="M33.78,15.04s-.01.03-.02.05c-.03.04-.08.09-.12.12-.22.17-.42.36-.63.54-.27.22-.55.43-.83.63-.28.18-.52.4-.79.59-.14.09-.27.18-.4.27-.31.19-.58.42-.89.61-.22.13-.45.24-.67.36-.2.11-.39.24-.59.36-.13.08-.26.15-.39.22-.51.3-1.07.52-1.61.78-.68.29-1.33.62-2.03.84-.24.08-.47.18-.71.26-.21.07-.43.12-.64.19-1.04.35-2.12.61-3.19.83-.16.04-.35.06-.5.09-.21.03-.33.05-.34-.15-.02-.55,0-1.66,0-2.19,0-.08,0-.16.04-.22.07-.11.34-.11.49-.14.36-.05.76-.06,1.13-.1.41-.08.81-.14,1.23-.19.57-.05,1.08-.23,1.65-.3.33-.05.64-.16.96-.23.57-.12,1.12-.29,1.68-.42.46-.1.91-.25,1.34-.41.55-.16,1.07-.38,1.6-.58.42-.16.83-.32,1.24-.49.38-.13.71-.28,1.06-.44.44-.21.87-.42,1.3-.64.14-.08.28-.17.43-.24.12-.05.21-.06.21-.03h0Z"/>
        <path class="cls-1" d="M54.8,19.17c.11.05.1.18.11.29,0,.49,0,1.58,0,2.07,0,.27-.05.31-.37.25-.8-.13-1.61-.33-2.4-.53-.52-.16-1.04-.3-1.56-.46-.22-.06-.46-.12-.67-.2-1.01-.37-2-.8-2.97-1.27-.25-.12-.52-.22-.76-.35-.18-.1-.36-.19-.54-.3-.38-.2-.73-.45-1.1-.67-.41-.25-.84-.45-1.22-.75-.28-.19-.54-.4-.82-.6-.36-.26-.72-.48-1.04-.78-.2-.16-.42-.3-.61-.49-.1-.1-.17-.19-.17-.24-.02-.09.19,0,.27.04.58.29,1.15.61,1.75.86.51.26,1.09.44,1.62.65.9.37,1.81.7,2.74.99.97.26,1.95.48,2.92.74.37.09.8.12,1.15.23.68.15,1.37.18,2.05.33.53.07,1.1.08,1.6.19h0Z"/>
        <path class="cls-1" d="M43.1,38.35c.1.13-.43.29-.54.33-.46.17-.95.19-1.44.16-.5-.02-.98-.2-1.43-.43-.86-.44-1.58-1.16-2.22-1.88-.24-.31-.48-.6-.74-.9-.59-.65-1.1-1.34-1.68-1.99-.16-.17-.29-.32-.42-.5-.17-.24-.46-.5-.4-.8.04-.16.14-.28.24-.41.22-.29.44-.59.67-.87.26-.33.51-.63.75-.96.21-.31.46-.61.71-.89.07-.09.13-.18.2-.27.08-.11.16-.22.19-.34.13-.35-.67-.57-.07-.61.46,0,1.55,0,2.06,0,.1,0,.44.03.2.14-.18.08-.42.11-.6.2-.23.1-.43.27-.61.44-.25.26-.46.56-.69.82-.21.23-.43.46-.64.71-.23.3-.5.56-.73.86-.13.18-.2.37-.09.56.05.11.13.21.21.3.24.29.49.57.72.87.55.63,1.05,1.29,1.61,1.92.41.49.79,1,1.2,1.49.16.19.36.35.54.52.37.34.67.63,1.09.88.33.2.7.36,1.09.45.21.06.45.11.66.15.09.02.15.05.18.07h0Z"/>
        <path class="cls-1" d="M34.62,28.11c-.23.15-.63.24-.71.55-.02.15,0,.27-.01.51,0,1.83,0,5.72,0,6.54,0,.25.26.4.47.49.07.04.36.12.23.14-.77.04-2.56.01-3.39.01-.16-.01-.17-.03.02-.09.11-.04.25-.1.35-.17.19-.16.36-.38.35-.63,0-.98,0-5.81,0-6.63,0-.22-.2-.42-.39-.53-.08-.06-.67-.23-.41-.29.67-.05,2.05,0,2.96-.02.13,0,.73-.03.52.12h0Z"/>
        <path class="cls-1" d="M43.53,31.62c-.13.09-.39.19-.52.32-.16.16-.31.37-.31.6,0,.6,0,1.15,0,1.97,0,1.19,0,2.51,0,2.96,0,.21-.17.16-.32.13-.33-.07-.65-.19-.93-.37-.1-.06-.21-.14-.3-.2-.17-.12-.32-.27-.3-.5,0-.77,0-3.44,0-4.18,0-.18-.07-.3-.21-.43-.13-.11-.44-.24-.54-.32-.11-.08.13-.1.22-.1.57,0,1.98,0,2.75,0,.13,0,.67-.02.46.12h0Z"/>
        <path class="cls-1" d="M50.72,44.05c.07.15-1.65.11-1.65.01.26-.6.09-1.29.04-1.93-.02-.15,0-.5-.13-.56-.3.26-.45.76-.69,1.09-.27.43-.53.89-.72,1.37-.24.25-.67-.88-.84-1.05-1.14-1.95-.84-1.63-1.15.3-.12.28.22.78.06.82-.17.03-1.43.15-.8-.18.48-.66.44-1.82.55-2.78.03-.24.16-1.18.2-1.35.08-.34.24-.38.59.34.27.47.57.92.86,1.39.18.21.51,1.28.86.91.44-.69.86-1.4,1.25-2.12.18-.22.27-.78.58-.77.34.76.17,1.74.42,2.55.13.65-.03,1.52.57,1.96h0Z"/>
        <path class="cls-1" d="M39.29,41.01c-.14-.28-.29-.58-.51-.8-.21-.2-.48-.35-.75-.46-.3-.14-.5-.18-.82-.17-.49,0-1.37,0-1.94,0-.1,0-.67-.04-.49.09.12.09.3.16.32.33.04.68,0,2.56.02,3.34,0,.14,0,.28-.1.38-.23.23-.48.31.08.31.43,0,1.14,0,1.59,0,.34,0,.58-.05.91-.12.33-.06.66-.13.93-.32.26-.18.47-.44.63-.71.14-.25.22-.41.23-.77.01-.34.04-.78-.08-1.09h0ZM38.26,42.37c-.09.39-.24.82-.57,1.07-.33.25-.74.34-1.15.33-.15-.01-.37.03-.45-.08-.06-.69,0-2.68-.02-3.67,0-.2.23-.16.4-.17.19,0,.4,0,.58.01.49.04.89.46,1.08.88.22.47.21,1.1.14,1.6h0Z"/>
        <path class="cls-1" d="M43.83,43.48c-.08.24-.09.54-.38.57-.66.03-2.12,0-2.81,0-.08,0-.23,0-.25-.05.25-.3.46-.26.44-.78,0-.77.02-2.35-.01-3.11-.02-.15-.1-.24-.23-.34-.1-.07-.19-.13-.2-.16,0,0,0,0,0-.01.16-.07.56-.03.82-.04.42,0,.89,0,1.31,0,.19,0,.36,0,.54,0,.23-.01.4-.06.5.1.07.12.09.27.09.41-.02.57-.08.4-.29.03-.1-.18-.31-.22-.5-.24-.29-.01-.64-.05-.92.03-.14.06-.14.22-.15.36,0,.25,0,.63,0,.9,0,.15-.02.34.13.42.07.04.15.05.23.05.26,0,.56.02.78-.07.23-.08.33-.65.35-.05,0,.27.02.58-.02.84-.02.09-.06.05-.11-.03-.15-.29-.49-.28-.78-.29-.41,0-.61,0-.58.5,0,.28,0,.64,0,.92,0,.3.18.37.47.36.29,0,.61-.01.87-.15.16-.08.34-.21.46-.36.32-.41.34-.28.22.18h0Z"/>
        <path class="cls-1" d="M32.15,43.87s-.11.12-.09.16c.06.05.2.04.3.05.32,0,.66,0,1,0,.24,0,.75.03.55-.13-.52-.35-.56-.68-.79-1.23-.29-.56-.56-1.12-.82-1.7-.19-.37-.37-.75-.53-1.13-.14-.36-.3-.5-.5-.08-.36.85-.8,1.63-1.12,2.51-.13.32-.29.62-.43.93-.09.23-.23.45-.44.59-.12.1-.25.18,0,.2.26.02.6.04.86-.03.11-.04,0-.19-.01-.38-.02-.18.06-.4.12-.57.05-.14.14-.27.29-.31.2-.06.43-.04.7-.05.26,0,.58-.02.76.2.17.27.35.65.15.92h0ZM30.61,42.44s-.02-.05-.01-.09c.03-.12.1-.24.15-.37.12-.29.25-.59.39-.86.03-.04.05-.07.09-.09.11,0,.16.18.2.27.13.29.26.58.34.89.12.36-.18.32-.43.33-.14,0-.32,0-.45,0-.15,0-.24-.02-.27-.07h0Z"/>
        <path class="cls-1" d="M21.71,44.01c.04.07.11.06.21.07.16.01.34,0,.51,0,.31-.02,1.11.05,1.04-.09-.08-.09-.29-.24-.38-.36-.18-.26-.27-.58-.42-.85-.23-.43-.44-.85-.63-1.31-.2-.4-.38-.81-.57-1.21-.45-1.13-.54-.74-.92.12-.23.49-.46.99-.67,1.48-.22.49-.44.97-.66,1.46-.09.22-.28.41-.45.55-.12.11-.14.16.06.18.22.03.51.03.73,0,.24-.02.15-.11.09-.35-.03-.12,0-.25.04-.37.06-.16.12-.38.24-.48.24-.17.5-.11.83-.12.19,0,.4-.01.58.04.22.06.27.26.34.45.04.11.08.24.09.36.01.17-.07.29-.06.42h0ZM20.15,42.43s-.02-.06-.02-.1c.02-.13.1-.27.14-.41.11-.27.24-.56.37-.81.03-.04.05-.07.09-.09.13,0,.19.28.25.39.11.25.21.5.3.76.12.3-.02.34-.29.34-.19,0-.43,0-.6,0-.13,0-.21-.03-.25-.08h0Z"/>
        <path class="cls-1" d="M28.35,43.08c-.04.48-.61.81-1.04.91-.34.06-.74.04-1.07.04-.27,0-.53-.05-.77-.13-.52-.15-.94-.5-1.21-.97-.22-.35-.27-.7-.27-1.12,0-.33.02-.6.14-.88.12-.27.27-.58.51-.79.45-.38.92-.57,1.54-.62.44-.05,1.79,0,1.97.44.09.18.11.76-.03.8-.11-.04-.16-.2-.25-.34-.07-.11-.15-.21-.25-.29-.39-.36-1.06-.42-1.54-.25-.32.14-.6.43-.79.72-.4.79-.36,1.81.09,2.57.35.61,1.11.77,1.76.6.58-.12.83-.66,1-1.17.08-.2.14-.3.18.04.02.15.04.32.02.45h0Z"/>
        <path class="cls-1" d="M55.73,39.63c0,.05-.12.09-.18.14-.48.25-.67.8-.99,1.21-.14.2-.27.4-.41.6-.06.09-.13.17-.17.27-.11.23-.07.75-.08,1.07.01.28-.04.58.09.81.09.13.26.2.27.25-.01.04-.06.03-.1.04-.17.02-.36.01-.54.01-.25,0-.54,0-.78,0-.21,0-.33-.02-.35-.05-.03-.05.16-.12.25-.25.05-.07.07-.15.08-.24.03-.36,0-.8.01-1.17,0-.13,0-.26-.04-.38-.03-.15-.14-.29-.23-.41-.1-.15-.2-.3-.3-.45-.14-.22-.29-.44-.43-.67-.11-.17-.22-.34-.36-.49-.13-.15-.36-.22-.48-.31,0-.02.05-.03.19-.04.36-.01.75,0,1.11,0,.21,0,.4,0,.5.02.03,0,.07.01.09.03.02.03-.01.06-.03.09-.03.04-.06.09-.08.14-.1.23.12.45.22.64.16.24.28.5.43.75.1.18.24.34.41.13.16-.2.29-.42.42-.64.12-.24.31-.45.37-.71.03-.12-.06-.28-.05-.35,0-.05.09-.07.15-.08.19-.02.61-.02.84,0,.11,0,.17.02.18.04h0Z"/>
        <path class="cls-1" d="M40.08,54.62s-.06.09-.09.11c-.32.24-.65.49-.98.73-.16.12-.36.23-.43.43-.24.27.91,2.41.11,1.87-.29-.21-.57-.41-.86-.63-.17-.13-.36-.28-.58-.26-.11.02-.21.07-.31.13-.27.18-.55.39-.81.58-.57.48-.61.27-.41-.34.1-.3.19-.61.27-.91.08-.28,0-.58-.24-.75-.31-.22-.63-.44-.94-.67-.1-.08-.26-.17-.3-.28,0-.05.09-.07.28-.08.44-.02,1.11.02,1.54-.02.25-.03.31-.24.38-.44.07-.21.15-.43.22-.65.13-.38.33-1.52.57-.46.09.35.21.69.32,1.03.05.15.08.33.2.44.2.14.41.09.7.1.16,0,.33,0,.5,0,.2,0,.4,0,.55,0,.19,0,.3.02.3.06h0Z"/>
        <path class="cls-1" d="M32.46,52.24c.03.05-.09.16-.17.22-.28.23-.66.42-.85.74-.29.41.91,2.16-.28,1.2-.59-.49-.9-.47-1.49.01-.11.08-.42.37-.52.26-.04-.05-.01-.21.02-.31.08-.37.42-.92.18-1.26-.07-.09-.18-.17-.27-.23-.12-.09-.23-.18-.35-.26-.12-.1-.38-.25-.34-.38.02-.04.11-.07.25-.08.27-.02.61,0,.9-.01.3-.02.4-.15.48-.42.07-.22.14-.43.21-.65.1-.33.25-.35.37,0,.08.25.16.52.24.76.04.1.09.19.18.24.34.15.82.04,1.18.09.14.01.23.04.25.08h0Z"/>
        <path class="cls-1" d="M46.17,52.24c.02.05-.04.14-.14.23-.25.24-.61.38-.83.65-.24.33.11.91.2,1.28.16.5-.24.26-.46.06-.75-.64-.82-.63-1.59-.02-.1.09-.31.28-.4.12-.03-.07-.02-.13,0-.21.06-.37.33-.77.18-1.15-.12-.28-.47-.45-.71-.63-.11-.08-.31-.2-.33-.32.03-.16.77-.08.95-.1.22,0,.44,0,.59-.15.16-.23.2-.55.3-.84.05-.15.17-.5.34-.27.11.2.17.47.25.69.05.17.09.37.21.47.09.09.32.11.49.1.21,0,.5,0,.7,0,.14.01.22.04.24.08h0Z"/>
        <g>
          <path class="cls-1" d="M41.71,27.7c-.26,0-.5-.02-.72-.05.16-.55.42-.94.72-1.01v1.07Z"/>
          <path class="cls-1" d="M42.65,27.66c-.22.03-.47.04-.73.04v-1.07c.3.08.57.47.73,1.03Z"/>
          <path class="cls-1" d="M42.87,27.64c-.1-.39-.26-.71-.46-.93.45.13.84.41,1.11.78-.19.06-.4.11-.65.15Z"/>
          <path class="cls-1" d="M40.77,27.62c-.24-.04-.46-.1-.63-.16.27-.35.65-.62,1.09-.75-.19.21-.35.53-.45.91Z"/>
          <path class="cls-1" d="M41.71,28.68h-.87c0-.29.03-.57.09-.82.25.03.51.06.78.06v.76Z"/>
          <path class="cls-1" d="M42.7,27.88c.05.25.08.52.09.81h-.87v-.76c.26,0,.53-.02.78-.05Z"/>
          <path class="cls-1" d="M40.71,27.83c-.06.26-.09.55-.09.86h-.92c0-.38.12-.74.3-1.04.21.08.45.14.71.18Z"/>
          <path class="cls-1" d="M41.71,29.66c-.25,0-.51.02-.75.06-.06-.25-.1-.53-.11-.82h.86v.76Z"/>
          <path class="cls-1" d="M40.74,29.75c-.25.04-.48.1-.68.17-.2-.29-.33-.64-.35-1.02h.92c0,.3.05.59.11.85Z"/>
          <path class="cls-1" d="M40.79,29.96c.1.34.25.61.43.81-.4-.12-.76-.35-1.02-.67.17-.06.37-.1.59-.14Z"/>
          <path class="cls-1" d="M41.71,29.88v.96c-.28-.07-.53-.42-.69-.91.21-.03.45-.04.69-.05Z"/>
          <path class="cls-1" d="M42.79,28.9c-.01.29-.05.56-.11.8-.25-.03-.5-.04-.76-.05v-.76h.86Z"/>
          <path class="cls-1" d="M42.62,29.92c-.16.5-.41.85-.7.92v-.96c.25,0,.48.02.7.04Z"/>
          <path class="cls-1" d="M42.84,29.94c.23.03.43.08.61.13-.27.33-.63.57-1.04.69.18-.2.33-.48.43-.82Z"/>
          <path class="cls-1" d="M43.92,28.9c-.03.36-.15.7-.33.99-.21-.07-.44-.12-.69-.16.06-.25.1-.54.11-.83h.92Z"/>
          <path class="cls-1" d="M43.01,28.68c0-.3-.03-.58-.09-.84.26-.04.51-.1.72-.17.17.3.28.64.29,1.01h-.92Z"/>
        </g>
      </g>
      <path class="cls-1" d="M37.11,67.17c-16.58,0-30.06-13.49-30.06-30.06S20.53,7.04,37.11,7.04s30.06,13.49,30.06,30.06-13.49,30.06-30.06,30.06ZM37.11,7.62c-16.26,0-29.49,13.23-29.49,29.49s13.23,29.49,29.49,29.49,29.49-13.23,29.49-29.49S53.37,7.62,37.11,7.62Z"/>
      <path class="cls-1" d="M37.11,74.21C16.65,74.21,0,57.57,0,37.11S16.65,0,37.11,0s37.11,16.65,37.11,37.11-16.65,37.11-37.11,37.11ZM37.11.57C16.96.57.57,16.96.57,37.11s16.39,36.53,36.53,36.53,36.53-16.39,36.53-36.53S57.25.57,37.11.57Z"/>
      <g>
        <path class="cls-1" d="M22.91,69.06l-.7-.35-.15-1.62-.36.06-.52,1.05-.62-.31,1.46-2.93.62.31-.67,1.34c.07-.04.14-.07.21-.11.07-.04.14-.07.21-.11l1.29-.6.69.34-1.67.79.21,2.15Z"/>
        <path class="cls-1" d="M24.29,69.6l1.17-3.05.65.25-1.17,3.05-.65-.25Z"/>
        <path class="cls-1" d="M30.83,71.48l-.07-.81-1.17-.24-.39.71-.73-.15,1.8-2.98.83.17.47,3.45-.73-.15ZM30.71,70.07l-.08-.79c0-.05-.01-.12-.02-.2,0-.08-.02-.17-.02-.25,0-.09-.01-.16-.02-.22-.03.06-.06.13-.11.21-.04.08-.08.16-.12.24-.04.07-.07.13-.09.16l-.38.7.83.17Z"/>
        <path class="cls-1" d="M34.01,71.94c-.25-.02-.45-.09-.62-.19-.17-.11-.28-.26-.36-.45-.07-.2-.1-.44-.07-.74.03-.3.1-.55.22-.73.12-.18.28-.31.47-.38.19-.07.41-.1.65-.08.17.02.32.05.44.09.12.05.23.1.32.15l-.25.51c-.1-.05-.2-.1-.29-.13-.09-.04-.18-.06-.27-.07-.12-.01-.22,0-.3.06-.08.05-.15.13-.2.23-.05.11-.08.25-.1.41-.02.17,0,.3.02.42.03.11.08.2.16.26.07.06.17.1.28.11.14.01.27,0,.38-.02.11-.03.23-.07.34-.13l-.05.58c-.11.06-.22.09-.34.11s-.26.02-.44,0Z"/>
        <path class="cls-1" d="M37.43,69.48c.34,0,.59.07.77.21.18.14.27.37.28.66l.02,1.67h-.48s-.14-.33-.14-.33h-.02c-.07.09-.14.17-.22.22-.07.06-.16.1-.26.13-.1.03-.21.04-.35.04-.15,0-.28-.03-.4-.08-.12-.06-.21-.14-.28-.26-.07-.12-.1-.26-.11-.45,0-.27.09-.46.27-.59.19-.13.46-.2.84-.22l.43-.02v-.11c0-.13-.04-.23-.11-.29-.07-.06-.17-.09-.29-.09-.12,0-.24.02-.36.06-.12.04-.23.08-.35.13l-.23-.46c.13-.07.28-.13.44-.17.17-.04.33-.06.51-.07ZM37.81,70.87h-.26c-.22.02-.37.06-.46.14-.09.07-.13.17-.13.29,0,.1.03.18.09.22.06.04.14.06.24.06.15,0,.27-.05.37-.13.1-.09.15-.21.15-.37v-.21Z"/>
        <path class="cls-1" d="M41.1,71.85c-.28.03-.52-.05-.72-.24-.2-.2-.33-.5-.38-.92-.05-.42,0-.76.15-1,.15-.24.37-.38.65-.41.12-.01.23-.01.32.01.09.02.18.06.25.1.07.05.14.1.19.16h.02s-.03-.12-.06-.21c-.02-.09-.04-.19-.05-.28l-.1-.8.68-.08.42,3.46-.52.06-.17-.31h-.03c-.03.08-.08.14-.14.21-.06.06-.13.12-.21.16-.09.04-.19.07-.31.09ZM41.27,71.28c.19-.02.31-.09.37-.21.06-.12.08-.29.06-.51v-.07c-.04-.24-.1-.42-.19-.54-.09-.12-.24-.17-.44-.14-.15.02-.26.1-.33.24-.07.14-.09.33-.06.57.03.24.1.42.2.53.1.11.23.16.38.14Z"/>
        <path class="cls-1" d="M44.66,68.59c.22-.05.43-.06.61,0,.18.05.34.14.47.29.13.14.22.33.28.57l.08.32-1.57.37c.05.19.14.32.27.4.13.08.29.1.48.06.16-.04.29-.09.42-.15.12-.06.24-.14.36-.24l.12.51c-.11.09-.22.16-.35.22-.12.06-.28.11-.47.16-.24.06-.47.06-.68.02s-.39-.15-.54-.31c-.15-.16-.26-.38-.33-.66-.07-.28-.08-.53-.02-.75.05-.21.15-.39.3-.52.15-.14.34-.23.57-.29ZM44.78,69.07c-.13.03-.23.1-.29.2-.06.1-.08.24-.05.42l.93-.22c-.03-.1-.06-.18-.12-.25-.05-.07-.12-.12-.2-.15-.08-.03-.17-.03-.27,0Z"/>
        <path class="cls-1" d="M49.8,66.92c.26-.1.49-.11.68-.03.19.08.34.27.46.57l.59,1.52-.64.25-.53-1.36c-.06-.17-.14-.28-.23-.34-.09-.06-.19-.07-.31-.02-.17.07-.26.17-.29.32-.02.15,0,.33.09.56l.45,1.17-.64.25-.53-1.36c-.04-.11-.09-.2-.15-.26-.05-.07-.11-.11-.18-.12-.07-.02-.14-.01-.22.02-.12.05-.2.11-.24.2-.04.09-.06.19-.04.32.02.13.06.27.12.44l.43,1.1-.64.25-.9-2.33.49-.19.2.27h.04c.02-.11.05-.2.1-.28.05-.08.12-.14.19-.2.08-.06.16-.1.25-.14.17-.07.33-.09.47-.09.14.01.27.06.37.15l.06-.02c.02-.15.09-.27.19-.38.11-.1.23-.18.36-.23Z"/>
        <path class="cls-1" d="M51.64,66.13l.65-.36,1.09,1s.07.07.1.1c.03.04.06.07.09.11.03.04.06.08.09.13h.01c-.03-.08-.06-.15-.08-.22-.02-.07-.04-.14-.05-.21l-.28-1.46.64-.35.44,2.98c.03.18.02.35,0,.5s-.1.28-.18.4c-.09.12-.2.21-.34.29-.07.04-.13.07-.18.09-.05.02-.1.04-.14.05l-.26-.47s.07-.02.11-.04c.04-.02.09-.04.14-.06.08-.05.15-.1.19-.17.04-.07.06-.14.07-.23,0-.08,0-.16-.01-.25l-.02-.13-2.07-1.69Z"/>
      </g>
      <g>
        <path class="cls-1" d="M23.03,8.71l-.69.38-1.42-.79-.15.33.57,1.02-.61.34-1.59-2.86.61-.34.73,1.31c0-.08.02-.16.03-.23,0-.08.02-.16.03-.23l.23-1.4.67-.38-.29,1.82,1.89,1.03Z"/>
        <path class="cls-1" d="M24.11,8.24l-1.31-3,.64-.28,1.31,3-.63.28Z"/>
        <path class="cls-1" d="M30.04,6.24l-.42-.7-1.16.3-.04.81-.72.19.31-3.47.82-.21,1.94,2.9-.72.19ZM29.32,5.02l-.42-.68s-.06-.1-.11-.18c-.04-.07-.09-.14-.13-.22-.04-.07-.08-.14-.11-.19,0,.06,0,.14,0,.23,0,.09,0,.18,0,.27,0,.08,0,.14,0,.18l-.04.8.83-.21Z"/>
        <path class="cls-1" d="M32.85,5.78c-.25.03-.46.02-.64-.05-.19-.06-.34-.18-.45-.36s-.2-.41-.24-.7c-.04-.3-.03-.56.05-.76.08-.21.2-.37.37-.48.17-.12.37-.19.62-.22.17-.02.32-.03.45-.01.13.02.24.04.34.07l-.13.55c-.11-.03-.22-.05-.31-.06-.1-.01-.19-.02-.28,0-.12.02-.21.06-.28.12-.07.07-.12.16-.14.27-.02.12-.02.26,0,.43.02.16.06.3.12.4.06.1.13.17.21.22.09.04.18.05.3.04.14-.02.26-.06.37-.11.1-.05.2-.12.3-.2l.08.58c-.09.08-.2.14-.3.19-.11.05-.25.08-.42.1Z"/>
        <path class="cls-1" d="M35.86,2.92c.34-.01.59.05.78.19.18.14.28.36.29.66l.05,1.67-.48.02-.14-.34h-.02c-.07.09-.14.17-.21.23-.07.06-.16.1-.25.13-.1.03-.21.05-.35.05-.15,0-.28-.02-.4-.07-.12-.05-.21-.14-.28-.25-.07-.12-.11-.26-.12-.44,0-.27.08-.46.26-.6.18-.13.46-.21.83-.24l.43-.03v-.11c0-.13-.05-.23-.12-.29-.07-.06-.17-.09-.29-.08-.12,0-.24.02-.35.06s-.23.09-.34.14l-.24-.45c.13-.07.28-.13.44-.18.16-.05.33-.07.51-.08ZM36.27,4.31l-.26.02c-.22.01-.37.06-.46.13-.08.08-.12.17-.12.29,0,.11.04.18.1.22.06.04.14.06.24.06.15,0,.27-.05.37-.14.1-.09.14-.21.14-.37v-.21Z"/>
        <path class="cls-1" d="M39.22,5.57c-.28-.02-.5-.15-.66-.38-.16-.23-.22-.56-.19-.98.03-.43.14-.74.34-.95s.43-.3.72-.28c.12,0,.22.03.31.07.09.04.16.09.22.15.06.06.11.13.15.2h.02s-.01-.12-.02-.21c0-.09,0-.19,0-.29l.06-.8.68.05-.26,3.47-.52-.04-.11-.33h-.03c-.05.06-.11.12-.18.17-.07.05-.15.09-.24.12-.09.03-.2.04-.32.03ZM39.5,5.04c.19.01.32-.03.41-.14.09-.1.14-.27.16-.49v-.07c.02-.24,0-.43-.06-.56-.06-.13-.2-.21-.4-.22-.15-.01-.27.04-.37.17-.1.12-.15.31-.17.55-.02.24.01.43.09.56.08.13.19.2.35.21Z"/>
        <path class="cls-1" d="M43.53,3.51c.23.04.41.12.56.24s.25.27.31.45c.06.18.06.39.02.63l-.06.32-1.59-.3c-.03.19,0,.35.09.48.09.13.22.21.41.25.16.03.3.04.44.03.14,0,.28-.03.43-.07l-.1.52c-.13.04-.27.06-.41.06-.14,0-.3-.01-.49-.05-.25-.05-.46-.13-.63-.26-.17-.13-.29-.29-.37-.5s-.08-.45-.03-.73c.05-.29.15-.52.28-.69.13-.17.3-.29.49-.35.19-.06.4-.07.64-.03ZM43.45,3.99c-.13-.02-.25,0-.35.06-.1.07-.18.19-.22.37l.94.18c.02-.1.02-.19,0-.28-.02-.08-.06-.15-.12-.21-.06-.06-.14-.1-.25-.12Z"/>
        <path class="cls-1" d="M48.98,5c.27.09.45.23.54.41.09.18.09.43-.02.73l-.52,1.55-.65-.22.46-1.39c.06-.17.07-.31.04-.41-.03-.11-.1-.18-.23-.22-.17-.06-.31-.04-.43.06-.11.1-.21.26-.28.49l-.4,1.19-.65-.22.46-1.39c.04-.11.06-.21.06-.3,0-.08-.02-.15-.06-.21-.04-.06-.1-.1-.18-.12-.12-.04-.22-.04-.31,0-.09.04-.17.11-.23.22-.07.11-.13.25-.19.41l-.37,1.12-.65-.22.8-2.37.49.17-.02.33h.04c.08-.05.16-.1.25-.13.09-.03.18-.04.28-.03.1,0,.19.02.28.05.17.06.31.14.41.23.1.1.17.22.19.36l.06.02c.11-.1.24-.15.39-.16.15-.01.29,0,.43.05Z"/>
        <path class="cls-1" d="M51.04,5.89l.67.33-.2,1.47s-.02.09-.03.14-.02.09-.04.14-.03.1-.05.15h.01c.04-.06.09-.12.13-.18s.09-.11.15-.16l1.04-1.06.66.32-2.2,2.06c-.13.13-.27.22-.42.28-.14.06-.29.08-.43.08-.15,0-.29-.05-.43-.12-.07-.03-.13-.07-.18-.1s-.09-.06-.12-.09l.24-.49s.06.04.1.07c.04.03.08.05.13.07.09.04.17.06.25.06.08,0,.15-.03.23-.07.07-.04.14-.09.2-.15l.09-.09.21-2.67Z"/>
      </g>
    </g>
  </g>
</svg>