<?xml version="1.0" encoding="UTF-8"?>
<svg id="Layer_2" data-name="Layer 2" xmlns="http://www.w3.org/2000/svg" viewBox="0 0 80.86 88.9">
  <g id="Layer_1-2" data-name="Layer 1">
    <path d="M76.86,52.52c1.16,0,2.09.35,2.78,1.05.81.7,1.22,1.68,1.22,2.95v4c0,3.36-1.16,6.26-3.48,8.69-2.32,2.32-5.22,3.48-8.7,3.48h-30.61l-14.95,14.96c-1.39,1.39-2.9,1.62-4.52.7-1.62-.7-2.43-1.91-2.43-3.65v-12h-4c-3.24.04-6.37-1.21-8.69-3.48C1.21,66.89-.04,63.76,0,60.52V20.17C0,16.7,1.16,13.8,3.48,11.47c2.32-2.27,5.45-3.52,8.69-3.48h4c2.67,0,4,1.33,4,4,0,1.28-.35,2.32-1.05,3.13-.69.69-1.68,1.04-2.95,1.04h-4c-2.67,0-4,1.33-4,4v40.34c0,2.67,1.34,4,4.01,4h7.99c1.28,0,2.26.4,2.95,1.21.81.69,1.26,1.72,1.22,2.78v6.61l9.22-9.39c.46-.35.87-.63,1.22-.87.48-.24,1.02-.36,1.56-.35h32.35c2.67,0,4.01-1.33,4.01-4v-4c0-1.28.35-2.26,1.04-2.95.88-.72,1.99-1.09,3.13-1.05h0ZM52.52,56.52c-3.81.03-7.59-.68-11.13-2.09-6.73-2.96-12.07-8.37-14.96-15.13-1.41-3.54-2.11-7.32-2.08-11.13,0-3.94.7-7.59,2.09-10.95,1.44-3.37,3.5-6.44,6.08-9.04,2.55-2.55,5.51-4.52,8.87-5.92C44.9.75,48.69-.02,52.52,0c3.83-.02,7.61.75,11.13,2.26,3.39,1.34,6.46,3.35,9.04,5.92,2.55,2.55,4.52,5.56,5.92,9.04,1.51,3.36,2.26,7.01,2.26,10.95s-.75,7.65-2.26,11.13c-1.34,3.39-3.35,6.46-5.92,9.04-2.6,2.58-5.67,4.65-9.04,6.09-3.54,1.41-7.32,2.12-11.13,2.09M52.52,8c-2.78,0-5.45.52-8,1.57-2.4,1.03-4.59,2.5-6.44,4.34-1.8,1.85-3.22,4.04-4.17,6.44-1.05,2.47-1.58,5.14-1.56,7.82,0,2.78.52,5.45,1.56,8,1.05,2.43,2.44,4.58,4.17,6.43,1.86,1.74,4,3.13,6.44,4.17,2.54,1.03,5.25,1.57,8,1.56,2.78,0,5.39-.52,7.82-1.56,2.4-.95,4.59-2.37,6.44-4.17,1.85-1.85,3.3-4,4.34-6.43,1.04-2.54,1.57-5.26,1.57-8,0-2.78-.52-5.39-1.56-7.82-.96-2.44-2.44-4.63-4.35-6.43-1.8-1.9-4-3.38-6.44-4.35-2.47-1.06-5.14-1.59-7.82-1.57M44.52,16.17c1.16,0,2.08.41,2.78,1.22.81.7,1.25,1.72,1.21,2.78.02,1.11-.42,2.18-1.21,2.95-.75.71-1.75,1.09-2.78,1.05-1.08.02-2.13-.35-2.96-1.05-.69-.83-1.06-1.88-1.04-2.95,0-1.16.35-2.09,1.04-2.78.77-.8,1.85-1.24,2.96-1.22M60.69,16.17c1.04,0,1.97.41,2.78,1.22.81.69,1.26,1.72,1.22,2.78.02,1.11-.42,2.18-1.22,2.95-.77.68-1.76,1.05-2.78,1.05-1.08.02-2.13-.35-2.95-1.05-.8-.77-1.24-1.84-1.22-2.95,0-1.16.41-2.09,1.22-2.78.77-.8,1.84-1.24,2.95-1.22h0ZM52.69,39.99c-.93,0-2.26-.12-4-.35-1.62-.23-3.25-1.1-4.87-2.61-1.02-.86-1.85-1.92-2.44-3.13-.57-.88-.7-1.97-.35-2.96.3-.98.99-1.8,1.91-2.26.88-.57,1.97-.7,2.96-.35.98.3,1.8.99,2.26,1.91.25.27.55.51.87.7.69.58,1.39.93,2.09,1.05.82.11,1.34.17,1.56.17h.35c.23,0,.69-.06,1.39-.17.78-.16,1.5-.52,2.09-1.05.32-.19.61-.42.87-.7.51-.88,1.31-1.55,2.26-1.91.99-.36,2.08-.23,2.96.35.92.46,1.61,1.28,1.91,2.26.36.97.3,2.04-.17,2.96-.67,1.15-1.49,2.2-2.44,3.13-1.62,1.5-3.31,2.37-5.05,2.6-1.27.19-2.54.3-3.82.35h-.35Z"/>
  </g>
</svg>