<?xml version="1.0" encoding="UTF-8"?>
<svg id="Layer_2" data-name="Layer 2" xmlns="http://www.w3.org/2000/svg" viewBox="0 0 55.89 49.67">
  <defs>
    <style>
      .cls-1 {
        fill: #7e9e57;
      }

      .cls-1, .cls-2 {
        fill-rule: evenodd;
      }

      .cls-2 {
        fill: #3859a0;
      }
    </style>
  </defs>
  <g id="Layer_2-2" data-name="Layer 2">
    <g>
      <path class="cls-2" d="M2.57,49.67c.31,0,.65-.05.95-.24.43-.28.56-.69.56-1.03,0-.57-.26-.96-.98-1.52l-.17-.12c-.49-.37-.63-.58-.63-.86,0-.36.27-.61.71-.61.39,0,.56.18.65.29.12.15.15.34.15.39,0,.07.02.11.06.11.05,0,.06-.05.06-.18,0-.47.02-.64.02-.71,0-.04-.03-.06-.08-.07-.15-.04-.4-.1-.79-.1-.83,0-1.37.47-1.37,1.12,0,.48.23.9.88,1.41l.27.21c.49.38.58.66.58.95,0,.31-.26.68-.8.68-.37,0-.72-.16-.85-.6-.03-.1-.05-.23-.05-.3,0-.05,0-.1-.06-.1-.05,0-.07.06-.07.15,0,.1-.03.45-.03.78,0,.13.02.16.11.2.26.11.52.15.87.15h0ZM7.13,47.86c0,.55,0,1.02-.03,1.27-.02.17-.05.3-.17.33-.05.01-.13.02-.21.02-.07,0-.1.02-.1.05,0,.04.04.06.12.06.24,0,.61-.02.75-.02.15,0,.53.02.92.02.07,0,.11-.02.11-.06,0-.03-.03-.05-.1-.05-.09,0-.22-.01-.3-.02-.18-.02-.21-.15-.23-.32-.03-.26-.03-.73-.03-1.27v-2.38c0-.06.02-.1.05-.11.05-.02.14-.02.23-.02.14,0,.38.04.59.23.33.3.35.7.35.89,0,.61-.46.98-.8.98-.13,0-.17.02-.17.07,0,.04.04.05.07.05.03,0,.09,0,.13,0,.84,0,1.46-.59,1.46-1.44,0-.31-.17-.58-.3-.71-.1-.09-.36-.34-1.11-.34-.27,0-.62.02-.86.02-.17,0-.54-.02-.86-.02-.09,0-.13.01-.13.05s.04.05.1.05c.08,0,.18,0,.23.02.2.04.24.14.26.34.01.19.01.36.01,1.26v1.05h0ZM14.41,49.67c1.51,0,2.46-1.08,2.46-2.44s-.92-2.22-2.4-2.22c-1.78,0-2.46,1.31-2.46,2.33s.69,2.33,2.4,2.33ZM14.66,49.37c-1.14,0-1.83-.98-1.83-2.22,0-1.48.78-1.86,1.46-1.86.98,0,1.74.83,1.74,2.16,0,1.72-.96,1.92-1.38,1.92ZM20.05,46.27h.02c.11.11.77.86,1.42,1.5.62.61,1.38,1.39,1.75,1.75.07.06.14.13.2.13.05,0,.08-.05.08-.18l.07-3.75c0-.33.05-.46.22-.51.07-.02.12-.02.18-.02.07,0,.11-.02.11-.05,0-.05-.06-.05-.14-.05-.29,0-.52.02-.58.02-.12,0-.41-.02-.72-.02-.09,0-.15,0-.15.05,0,.04.02.05.1.05.08,0,.23,0,.31.04.14.06.2.17.2.54l.06,2.67h-.03c-.1-.1-.9-.95-1.31-1.36-.87-.86-1.77-1.83-1.84-1.91-.1-.11-.15-.18-.22-.18-.06,0-.08.08-.08.2l-.05,3.52c0,.52-.03.69-.18.74-.09.02-.18.03-.27.03-.06,0-.1.01-.1.05,0,.05.05.06.13.06.31,0,.59-.02.64-.02.11,0,.35.02.74.02.08,0,.14-.01.14-.06,0-.04-.04-.05-.1-.05-.09,0-.21,0-.31-.04-.12-.04-.2-.2-.21-.66l-.07-2.5h0ZM27.59,49.67c.32,0,.65-.05.95-.24.43-.28.56-.69.56-1.03,0-.57-.26-.96-.98-1.52l-.17-.12c-.49-.37-.63-.58-.63-.86,0-.36.27-.61.71-.61.39,0,.56.18.65.29.13.15.15.34.15.39,0,.07.02.11.06.11.05,0,.07-.05.07-.18,0-.47.02-.64.02-.71,0-.04-.03-.06-.08-.07-.15-.04-.4-.1-.79-.1-.83,0-1.37.47-1.37,1.12,0,.48.23.9.88,1.41l.27.21c.49.38.58.66.58.95,0,.31-.26.68-.8.68-.37,0-.72-.16-.85-.6-.03-.1-.05-.23-.05-.3,0-.05,0-.1-.06-.1-.05,0-.07.06-.07.15,0,.1-.03.45-.03.78,0,.13.02.16.11.2.26.11.52.15.87.15h0ZM33.9,49.67c1.51,0,2.46-1.08,2.46-2.44s-.92-2.22-2.4-2.22c-1.79,0-2.46,1.31-2.46,2.33,0,1.05.69,2.33,2.4,2.33ZM34.15,49.37c-1.14,0-1.83-.98-1.83-2.22,0-1.48.78-1.86,1.46-1.86.97,0,1.74.83,1.74,2.16,0,1.72-.96,1.92-1.38,1.92ZM39.24,47.86c0,.55,0,1.02-.03,1.27-.02.17-.05.3-.17.33-.07.02-.14.02-.21.02-.07,0-.1.02-.1.05,0,.04.04.06.12.06.24,0,.61-.02.73-.02.09,0,.53.02.87.02.08,0,.12-.02.12-.06,0-.03-.02-.05-.07-.05-.1,0-.19-.01-.29-.02-.18-.02-.21-.15-.23-.33-.03-.25-.03-.72-.03-1.27v-.08s.02-.05.05-.05h.52s.08.02.11.05c.08.09.35.49.59.82.33.46.56.74.81.87.15.08.3.11.64.11h.57c.07,0,.11-.01.11-.06,0-.03-.02-.05-.07-.05s-.1,0-.17-.02c-.09-.02-.33-.06-.67-.4-.35-.37-.76-.9-1.29-1.56.6-.49.79-.89.79-1.33,0-.4-.24-.7-.4-.82-.32-.22-.72-.26-1.09-.26-.18,0-.64.02-.84.02-.12,0-.5-.02-.81-.02-.09,0-.13.01-.13.05s.04.05.1.05c.08,0,.18,0,.23.02.2.04.24.14.26.34.01.19.01.36.01,1.26v1.05h0ZM39.95,45.47s.01-.07.05-.08c.06-.02.17-.02.32-.02.35,0,.91.24.91,1.09,0,.49-.17.76-.35.89-.11.08-.18.1-.42.1-.15,0-.33-.02-.45-.06-.04-.02-.05-.04-.05-.11v-1.81h0ZM45.83,49.67c.32,0,.65-.05.95-.24.43-.28.56-.69.56-1.03,0-.57-.26-.96-.98-1.52l-.17-.12c-.49-.37-.63-.58-.63-.86,0-.36.27-.61.71-.61.39,0,.56.18.65.29.12.15.15.34.15.39,0,.07.02.11.06.11.05,0,.07-.05.07-.18,0-.47.02-.64.02-.71,0-.04-.03-.06-.08-.07-.26-.07-.52-.1-.79-.1-.83,0-1.37.47-1.37,1.12,0,.48.23.9.88,1.41l.27.21c.49.38.58.66.58.95,0,.31-.26.68-.8.68-.37,0-.72-.16-.85-.6-.03-.1-.05-.23-.05-.3,0-.05,0-.1-.06-.1-.05,0-.06.06-.07.15,0,.1-.03.45-.03.78,0,.13.02.16.11.2.26.11.52.15.87.15h0ZM51.78,22.45s3.94-.48,4.11-2.67v-.28c-.05-.67-.44-1.49-1.36-2.49,0,0-2.61-.89-5.74.99,0,0,2.82.97,3,4.44h0ZM40.09,21.04c5.23-4.24,7.53-7.07,12.19-6.31,0,0-.91-1.74-1.54-2.17-.62-.42-3.21-.65-5.94,1.26-2.73,1.92-8.34,6.53-9.08,7.21h4.37ZM49.2,9.88c-3.85-.7-6.29,1.69-10.62,5.05-3.24,2.52-7.57,6.65-9.02,5,0,0-.85.19-2.27,1.11h-5.82s5.31-4.02,5.98-3.55c.56.39,1.52.67,7.24-4.16,7.26-6.13,9.46-7.57,13-6.75,0,0,.28,1.54,1.49,3.29h0ZM46.4,3.64c-3.22-.8-4.73.11-10.48,4.49-4.71,3.58-9.32,7.44-10.76,6.58,0,0-5.27,2.4-8.87,6.34H0S5.32,9.77,20.05,5.44l1.43,3.09s-4.93,1.68-10.31,6.48l2.41,2.87s4.61-4.42,9.54-6.49c1.34.93,6.18-2.86,10.83-6.46C38.57,1.35,40.49.12,42.8,0h.79c.54.03,1.12.1,1.77.21,0,0,.51,2.14,1.04,3.43h0Z"/>
      <path class="cls-1" d="M2.02,21.27l1.22-1.18-.75-1.53,1.5.8,1.22-1.18-.29,1.68,1.5.8-1.69.24-.3,1.68-.75-1.53-1.68.23h0ZM5.74,17.42l1.26-1.14-.69-1.55,1.47.85,1.26-1.14-.35,1.66,1.47.85-1.69.18-.35,1.67-.69-1.55-1.69.18h0ZM9.01,21.18l1.26-1.14-.69-1.55,1.47.85,1.26-1.14-.35,1.66,1.47.85-1.69.18-.35,1.67-.69-1.55-1.69.18h0Z"/>
      <g>
        <path class="cls-2" d="M37.78,22.01c-.06,0-.11,0-.14.01-.02,0-.02.02-.02.04h0v.79s0,.04.02.05c.05.02.13.03.2.03.1,0,.14-.01.19-.04.08-.06.15-.18.15-.39,0-.37-.24-.48-.4-.48Z"/>
        <path class="cls-2" d="M23.6,22.01c-.07,0-.11,0-.14.01-.02,0-.02.02-.02.04v.79s0,.04.02.05c.05.02.13.03.2.03.1,0,.14-.01.19-.04.08-.06.15-.18.15-.39,0-.37-.24-.48-.4-.48Z"/>
        <polygon class="cls-2" points="29.57 23.4 29.57 23.4 29.57 23.4 29.57 23.4"/>
        <path class="cls-2" d="M11.71,21.98c-.3,0-.64.17-.64.81,0,.54.3.97.8.97.18,0,.6-.09.6-.84,0-.58-.34-.94-.76-.94Z"/>
        <polygon class="cls-2" points="14.13 22.41 14.13 22.41 14.13 22.41 14.13 22.41"/>
        <path class="cls-2" d="M17.51,22.39s0-.02-.01-.02-.01.01-.02.02l-.24.64s0,.02.01.02h.48s.02,0,.01-.02l-.23-.64Z"/>
        <path class="cls-2" d="M44.32,21.98c-.3,0-.64.17-.64.81,0,.54.3.97.8.97.18,0,.6-.09.6-.84,0-.58-.34-.94-.76-.94Z"/>
        <path class="cls-2" d="M.07,20.96v3.68h48.48v-3.68H.07ZM3.24,21.94s-.05,0-.08,0c-.07.02-.09.07-.1.22l-.03,1.64c0,.06-.01.08-.03.08-.03,0-.06-.03-.09-.06-.16-.16-.5-.5-.77-.76-.28-.28-.57-.61-.62-.66h0l.03,1.09c0,.2.04.27.09.29.04.02.09.02.14.02.03,0,.04,0,.04.02,0,.02-.02.03-.06.03-.17,0-.27,0-.32,0-.02,0-.15,0-.28,0-.03,0-.06,0-.06-.03,0-.02.02-.02.04-.02.04,0,.08,0,.12-.01.07-.02.08-.1.08-.32l.02-1.54c0-.05,0-.09.03-.09.03,0,.05.03.1.08.26.28.53.56.81.84.18.18.53.55.57.59h.01l-.03-1.17c0-.16-.03-.21-.09-.23-.04-.02-.1-.02-.14-.02-.03,0-.04,0-.04-.02,0-.02.03-.02.07-.02.14,0,.26,0,.31,0,.03,0,.13,0,.25,0,.03,0,.06,0,.06.02,0,.02-.02.02-.05.02ZM5.91,23.86c-.09,0-.28,0-.49,0-.05,0-.08,0-.08-.02,0-.02.01-.02.04-.02.02,0,.04-.03.02-.06l-.21-.55s-.01-.02-.03-.02h0s-.58,0-.58,0c-.01,0-.02,0-.02.02l-.14.37c-.03.07-.04.13-.04.16,0,.05.02.08.1.08h.04s.04,0,.04.02c0,.02-.02.03-.04.03-.08,0-.19,0-.28,0-.03,0-.17,0-.31,0-.03,0-.05,0-.05-.03,0-.02.01-.02.03-.02.02,0,.06,0,.08,0,.12-.02.17-.1.22-.23l.65-1.63c.03-.07.05-.1.07-.1.02,0,.04.02.06.08.06.14.48,1.2.65,1.6.1.23.17.27.23.28.04,0,.07.01.11.01.02,0,.03,0,.03.02,0,.02-.02.03-.12.03ZM8.12,22.23s0,.04-.02.04c-.02,0-.03-.01-.03-.05v-.03c0-.07-.08-.14-.31-.15h-.33s0,1.06,0,1.06c0,.24,0,.44.01.56,0,.07.02.13.1.14.04,0,.09.01.13.01.03,0,.04,0,.04.02,0,.02-.02.03-.05.03-.17,0-.34,0-.41,0-.06,0-.22,0-.33,0-.03,0-.05,0-.05-.03,0-.01.01-.02.04-.02.03,0,.06,0,.09-.01.05-.01.07-.07.08-.14.01-.11.01-.31.01-.55h0v-1.07h-.39c-.15.02-.21.03-.25.09-.02.03-.03.06-.04.09,0,.02-.01.03-.03.03-.02,0-.02-.01-.02-.04,0-.04.05-.28.05-.3,0-.03.02-.05.03-.05.02,0,.05.03.11.03.08,0,.17.01.26.01h1.03c.17,0,.23-.03.25-.03.02,0,.02.02.02.06,0,.05,0,.23,0,.3ZM9.79,23.86c-.17,0-.34,0-.41,0-.06,0-.22,0-.33,0-.03,0-.05,0-.05-.03,0-.01.01-.02.04-.02.03,0,.06,0,.09-.01.05-.01.07-.05.07-.13.01-.11.01-.32.01-.57h0v-.46c0-.4,0-.47,0-.55,0-.09-.03-.13-.09-.15-.03,0-.06-.01-.09-.01-.03,0-.04,0-.04-.03,0-.02.02-.02.06-.02.1,0,.26,0,.34,0,.06,0,.22,0,.32,0,.03,0,.05,0,.05.02,0,.02-.01.03-.04.03-.03,0-.05,0-.08,0-.07.01-.09.06-.1.15,0,.08,0,.16,0,.55v.46c0,.25,0,.46.01.57,0,.07.03.12.1.13.04,0,.09.01.13.01.03,0,.04,0,.04.02,0,.02-.02.03-.05.03ZM11.76,23.89c-.75,0-1.05-.56-1.05-1.02,0-.44.29-1.02,1.07-1.02.65,0,1.05.38,1.05.97s-.42,1.07-1.08,1.07ZM15.85,21.94s-.05,0-.08,0c-.07.02-.09.07-.1.22l-.03,1.64c0,.06-.01.08-.03.08-.03,0-.06-.03-.09-.06-.16-.16-.5-.5-.77-.76-.28-.28-.57-.61-.62-.66h0l.03,1.09c0,.2.04.27.09.29.04.02.09.02.14.02.03,0,.04,0,.04.02,0,.02-.02.03-.06.03-.17,0-.27,0-.32,0-.02,0-.15,0-.28,0-.03,0-.06,0-.06-.03,0-.02.02-.02.04-.02.03,0,.08,0,.12-.01.07-.02.08-.1.08-.32l.02-1.54c0-.05,0-.09.03-.09.03,0,.05.03.1.08.26.28.53.56.81.84.18.18.53.55.57.59h.01l-.03-1.17c0-.16-.03-.21-.09-.23-.04-.02-.1-.02-.14-.02-.03,0-.04,0-.04-.02,0-.02.03-.02.07-.02.13,0,.26,0,.31,0,.03,0,.13,0,.25,0,.03,0,.06,0,.06.02,0,.02-.02.02-.05.02ZM18.53,23.86c-.09,0-.28,0-.49,0-.05,0-.08,0-.08-.02,0-.02.01-.02.04-.02.02,0,.04-.03.02-.06l-.21-.55s-.01-.02-.03-.02h0s-.58,0-.58,0c-.01,0-.02,0-.02.02l-.14.37c-.03.07-.04.13-.04.16,0,.05.02.08.1.08h.04s.04,0,.04.02c0,.02-.02.03-.04.03-.08,0-.19,0-.28,0-.03,0-.17,0-.31,0-.03,0-.05,0-.05-.03,0-.02.01-.02.03-.02.03,0,.05,0,.08,0,.12-.02.17-.1.22-.23l.65-1.63c.03-.07.05-.1.07-.1.02,0,.04.02.06.08.06.14.48,1.2.65,1.6.1.23.17.27.23.28.04,0,.08.01.11.01.02,0,.03,0,.03.02,0,.02-.02.03-.12.03ZM20.62,23.8c-.02.06-.03.07-.16.07-.37,0-.55-.02-.76-.02-.06,0-.22,0-.33,0-.03,0-.05,0-.05-.03,0-.01.01-.02.04-.02.04,0,.07,0,.09-.01.05-.01.07-.07.08-.14.01-.11.01-.31.01-.55v-.46c0-.4,0-.47,0-.55,0-.09-.03-.13-.11-.15-.02,0-.05,0-.09,0-.03,0-.04,0-.04-.02s.02-.02.06-.02c.12,0,.29,0,.36,0,.06,0,.25,0,.35,0,.04,0,.05,0,.05.02s-.02.02-.05.02-.07,0-.1,0c-.07.01-.09.06-.1.15,0,.08,0,.16,0,.55h0v.46c0,.33,0,.51.05.56.04.04.11.06.31.06.14,0,.24,0,.3-.07.04-.05.06-.1.07-.16,0-.02,0-.04.03-.04.02,0,.02.01.02.04,0,.03-.02.22-.04.3ZM24.88,23.86h-.25c-.15,0-.21-.01-.28-.05-.11-.06-.21-.18-.36-.38-.1-.14-.22-.32-.26-.36-.01-.02-.03-.02-.05-.02h-.23s-.02,0-.02.01v.04c0,.24,0,.45.01.56,0,.08.02.13.1.14.04,0,.1.01.13.01.02,0,.03,0,.03.02,0,.02-.02.03-.05.03-.15,0-.34,0-.38,0-.05,0-.21,0-.32,0-.03,0-.05,0-.05-.03,0-.01.01-.02.04-.02.03,0,.06,0,.09-.01.05-.01.06-.07.07-.14.01-.11.01-.31.01-.55h0v-.46c0-.4,0-.47,0-.55,0-.09-.03-.13-.11-.15-.02,0-.07,0-.1,0-.03,0-.04,0-.04-.02s.02-.02.06-.02c.14,0,.3,0,.36,0,.09,0,.29,0,.37,0,.16,0,.34.02.48.11.07.05.18.18.18.36,0,.19-.08.37-.34.58.23.29.41.52.56.68.15.15.25.17.29.18.03,0,.05,0,.07,0s.03,0,.03.02c0,.02-.02.03-.05.03ZM26.74,23.8c-.02.07-.04.07-.14.07-.39,0-.57-.02-.72-.02-.06,0-.22,0-.33,0-.03,0-.05,0-.05-.03,0-.01.01-.02.04-.02.04,0,.07,0,.09-.01.05-.01.07-.07.08-.14.01-.11.01-.31.01-.55h0s0,0,0,0v-.46c0-.4,0-.47,0-.55,0-.09-.03-.13-.11-.15-.02,0-.07,0-.1,0-.03,0-.04,0-.04-.02s.02-.02.06-.02c.14,0,.3,0,.37,0,.08,0,.6,0,.65,0,.04,0,.07,0,.11-.02.01,0,.03-.01.04-.01s.02.01.02.02c0,.02-.01.05-.02.17,0,.03,0,.14-.01.17,0,.01,0,.03-.03.03s-.02-.01-.02-.04c0-.03,0-.06-.02-.09-.02-.05-.04-.08-.17-.09-.04,0-.32-.01-.37-.01-.01,0-.02,0-.02.03v.66s0,.03.02.03c.06,0,.36,0,.42,0,.06,0,.1-.01.12-.04.02-.02.03-.03.04-.03.01,0,.02,0,.02.02s-.01.06-.02.19c0,.05-.01.16-.01.17,0,.02,0,.05-.02.05-.02,0-.02-.01-.02-.02,0-.03,0-.06,0-.09-.01-.05-.05-.09-.15-.1-.05,0-.31,0-.37,0-.01,0-.02.01-.02.03v.21c0,.09,0,.33,0,.4,0,.18.05.22.31.22.07,0,.18,0,.24-.03.07-.03.1-.09.12-.19,0-.03.01-.04.03-.04.02,0,.02.02.02.05,0,.06-.02.24-.03.29ZM29.74,22.93s-.04,0-.07,0c-.07.01-.1.06-.1.15,0,.08,0,.18,0,.31h0v.29c0,.07,0,.08-.03.09-.17.09-.42.12-.63.12-.64,0-1.2-.3-1.2-1.02,0-.42.22-.71.45-.85.25-.15.48-.17.7-.17.15,0,.31.02.46.04.07.01.14.02.21.03.03,0,.04.01.04.03,0,.03-.02.1-.02.43,0,.04,0,.05-.03.05-.02,0-.02-.01-.03-.03,0-.06-.02-.14-.09-.22-.08-.08-.29-.2-.58-.2-.14,0-.33.01-.51.16-.15.12-.24.32-.24.64,0,.56.36.98.9.98.07,0,.16,0,.22-.03.04-.02.05-.05.05-.1v-.24c0-.13,0-.23,0-.31,0-.09-.03-.13-.11-.15-.02,0-.06,0-.1,0-.02,0-.04,0-.04-.02,0-.02.02-.03.05-.03.14,0,.3,0,.38,0,.08,0,.22,0,.31,0,.03,0,.05,0,.05.03,0,.02-.02.02-.03.02ZM31.47,23.86c-.17,0-.34,0-.41,0-.06,0-.22,0-.33,0-.03,0-.05,0-.05-.03,0-.01.01-.02.04-.02.03,0,.06,0,.09-.01.05-.01.07-.05.08-.13.01-.11.01-.32.01-.57v-.46c0-.4,0-.47,0-.55,0-.09-.03-.13-.09-.15-.03,0-.06-.01-.09-.01-.03,0-.04,0-.04-.03,0-.02.02-.02.06-.02.1,0,.26,0,.34,0,.07,0,.22,0,.32,0,.03,0,.05,0,.05.02,0,.02-.02.03-.04.03s-.05,0-.08,0c-.07.01-.09.06-.1.15,0,.08,0,.16,0,.55v.46c0,.25,0,.46.01.57,0,.07.03.12.1.13.04,0,.09.01.13.01.03,0,.04,0,.04.02,0,.02-.02.03-.05.03ZM33.36,23.79c-.13.08-.28.11-.41.11h0c-.15,0-.27-.02-.38-.07-.04-.02-.05-.03-.05-.09,0-.14.01-.3.01-.34,0-.04.01-.07.03-.07.02,0,.03.02.03.04,0,.05.01.09.02.13.06.19.21.26.37.26.23,0,.35-.16.35-.3,0-.13-.04-.25-.26-.42l-.12-.09c-.29-.22-.38-.41-.38-.62,0-.29.24-.49.6-.49.12,0,.23.01.35.04.02,0,.04.01.04.03,0,.03-.01.11-.01.31,0,.06,0,.08-.03.08-.02,0-.03-.02-.03-.05,0-.06-.03-.12-.07-.17-.04-.05-.12-.13-.28-.13-.19,0-.31.11-.31.27,0,.12.06.21.28.38l.07.05c.31.24.43.42.43.66,0,.15-.06.33-.24.45ZM36.2,22.23s0,.04-.02.04c-.02,0-.03-.01-.03-.05v-.03c0-.07-.08-.14-.31-.15h-.33s0,1.06,0,1.06c0,.24,0,.44.01.56,0,.07.02.13.1.14.04,0,.09.01.13.01.03,0,.04,0,.04.02,0,.02-.02.03-.05.03-.17,0-.34,0-.41,0-.06,0-.22,0-.33,0-.03,0-.05,0-.05-.03,0-.01.01-.02.04-.02.03,0,.06,0,.09-.01.05-.01.07-.07.08-.14.01-.11.01-.31.01-.55h0v-1.07h-.39c-.15.02-.21.03-.25.09-.02.03-.03.06-.04.09,0,.02-.01.03-.03.03-.02,0-.02-.01-.02-.04,0-.04.05-.28.05-.3,0-.03.02-.05.03-.05.02,0,.05.03.11.03.09,0,.17.01.26.01h1.03c.17,0,.23-.03.25-.03.02,0,.02.02.02.06,0,.05,0,.23,0,.3ZM39.05,23.86h-.25c-.15,0-.21-.01-.28-.05-.11-.06-.21-.18-.36-.38-.1-.14-.22-.32-.26-.36-.01-.02-.03-.02-.05-.02h-.23s-.02,0-.02.01v.04c0,.24,0,.45.01.56,0,.08.02.13.1.14.04,0,.1.01.13.01.02,0,.03,0,.03.02,0,.02-.02.03-.05.03-.15,0-.34,0-.38,0-.05,0-.21,0-.32,0-.03,0-.05,0-.05-.03,0-.01.01-.02.04-.02.03,0,.06,0,.09-.01.05-.01.06-.07.08-.14.01-.11.01-.31.01-.55h0v-.46c0-.4,0-.47,0-.55,0-.09-.03-.13-.11-.15-.02,0-.07,0-.1,0-.03,0-.05,0-.05-.02s.02-.02.06-.02c.14,0,.3,0,.36,0,.09,0,.29,0,.37,0,.16,0,.34.02.48.11.07.05.18.18.18.36,0,.19-.08.37-.34.58.23.29.41.52.57.68.15.15.25.17.29.18.03,0,.05,0,.07,0s.03,0,.03.02c0,.02-.02.03-.05.03ZM41.25,21.94s-.08.01-.11.03c-.05.03-.08.06-.14.13-.09.1-.45.72-.5.83-.04.09-.04.17-.04.26v.21s0,.15,0,.26c0,.08.03.13.11.14.04,0,.09.01.13.01.03,0,.04,0,.04.02,0,.02-.02.03-.05.03-.16,0-.33,0-.4,0-.07,0-.23,0-.33,0-.04,0-.06,0-.06-.03,0-.01.01-.02.04-.02.04,0,.07,0,.09-.01.05-.01.07-.07.08-.14,0-.11,0-.22,0-.26h0v-.21c0-.14-.03-.2-.06-.27-.02-.04-.37-.61-.46-.75-.07-.1-.13-.16-.18-.19-.03-.02-.08-.03-.11-.03-.02,0-.04,0-.04-.02,0-.02.02-.02.05-.02.05,0,.24,0,.33,0,.05,0,.16,0,.28,0,.03,0,.04,0,.04.02s-.02.02-.06.03c-.02,0-.04.03-.04.05s.01.05.03.09c.04.08.4.71.44.78.03-.06.35-.63.39-.72.03-.06.04-.1.04-.14,0-.03-.01-.05-.05-.07-.02,0-.05-.01-.05-.03,0-.02.01-.02.04-.02.09,0,.17,0,.24,0,.06,0,.23,0,.28,0,.03,0,.05,0,.05.02,0,.02-.02.03-.05.03ZM44.37,23.89h0c-.75,0-1.05-.56-1.05-1.02s.29-1.02,1.07-1.02c.65,0,1.05.38,1.05.97s-.42,1.07-1.08,1.07ZM47.62,22.01s0,.18-.01.21c0,.02,0,.04-.03.04s-.02-.01-.03-.04c0-.02,0-.06-.02-.1-.02-.04-.07-.08-.17-.08h-.4s-.02,0-.02.03v.65s0,.02.02.02h.33s.08,0,.12,0c.05,0,.09-.01.11-.05.01-.02.02-.03.03-.03.01,0,.02,0,.02.02s-.01.08-.02.16c0,.05-.01.17-.01.19,0,.02,0,.05-.03.05-.02,0-.02-.02-.02-.04s0-.05-.02-.08c-.01-.04-.05-.08-.13-.09-.06,0-.34,0-.38,0-.01,0-.02,0-.02.02h0s0,0,0,0v.21c0,.25,0,.44.01.55,0,.08.02.13.1.14.04,0,.09.01.13.01s.04,0,.04.02c0,.02-.02.03-.06.03-.16,0-.33,0-.4,0s-.23,0-.33,0c-.04,0-.05,0-.05-.03,0-.01.01-.02.04-.02.03,0,.06,0,.09-.01.05-.01.07-.07.08-.14.01-.11.01-.3.01-.55v-.46c0-.4,0-.47,0-.55,0-.09-.03-.13-.11-.15-.02,0-.06,0-.1,0-.03,0-.04,0-.04-.02,0-.02.02-.03.06-.03.14,0,.3,0,.37,0,.1,0,.63,0,.69,0,.05,0,.08,0,.11-.01.02,0,.03-.02.04-.02.01,0,.02.01.02.02,0,.02-.01.05-.02.12Z"/>
        <path class="cls-2" d="M4.9,22.39s0-.02-.01-.02-.01.01-.02.02l-.24.64s0,.02.01.02h.48s.02,0,.01-.02l-.23-.64Z"/>
      </g>
      <path class="cls-2" d="M11.9,44.4c1.56,0,3.42-.17,4.4-.56.42-.17.51-.29.63-.71.24-.83.54-2.96.54-3.25,0-.2-.05-.37-.22-.37-.2,0-.24.1-.32.49-.1.44-.42,1.15-.83,1.61-.98,1.12-2.3,1.37-4.47,1.37-3.27,0-7.7-2.88-7.7-8.7,0-2.37.46-4.69,2.25-6.33,1.07-.98,2.47-1.51,4.59-1.51,2.25,0,4.15.66,4.96,1.51.61.63.93,1.49.95,2.25,0,.34.05.54.24.54.22,0,.27-.2.29-.56.05-.49.02-1.83.07-2.64.05-.86.12-1.15.12-1.34,0-.15-.1-.27-.37-.29-.73-.07-1.51-.29-2.44-.42-1.12-.15-2.03-.24-3.54-.24-3.64,0-5.96.98-7.72,2.59-2.35,2.15-2.86,5.03-2.86,6.69,0,2.37.63,5.11,3.03,7.21,2.22,1.93,5.03,2.66,8.38,2.66h0ZM21.16,36.99c0,2.25,0,4.18-.15,5.21-.12.71-.27,1.25-.86,1.35-.27.05-.62.1-1.06.1-.35,0-.47.07-.47.2,0,.17.21.24.59.24,1.18,0,3.05-.07,3.73-.07.77,0,2.63.07,4.58.07.33,0,.56-.07.56-.24,0-.12-.15-.2-.47-.2-.44,0-1.09-.05-1.51-.1-.89-.1-1.06-.64-1.15-1.32-.15-1.05-.15-2.99-.15-5.24v-9.79c0-.27.09-.42.24-.47.27-.07.71-.1,1.15-.1.68,0,1.89.15,2.96.95,1.66,1.22,1.74,2.86,1.74,3.67,0,2.5-2.31,4.04-3.96,4.04-.62,0-.83.07-.83.27,0,.17.21.2.35.22.15.02.47.02.62.02,4.2,0,7.27-2.45,7.27-5.92,0-1.3-.83-2.4-1.48-2.91-.47-.37-1.8-1.39-5.5-1.39-1.36,0-3.08.07-4.29.07-.83,0-2.69-.07-4.26-.07-.44,0-.65.05-.65.22s.18.22.5.22c.41,0,.92.02,1.15.07.98.17,1.21.56,1.27,1.39.06.78.06,1.47.06,5.19v4.31h0,0Z"/>
      <path class="cls-2" d="M36.35,36.99c0,2.25,0,4.18-.15,5.21-.12.71-.27,1.25-.87,1.35-.27.05-.63.1-1.07.1-.36,0-.48.07-.48.2,0,.17.21.24.6.24,1.19,0,3.08-.07,3.76-.07,1.76,0,3.76.15,8.27.15,1.13,0,1.4,0,1.61-.64.15-.49.39-2.15.39-2.71,0-.25,0-.44-.24-.44-.21,0-.27.1-.33.37-.21,1-.57,1.52-1.34,1.81-.78.29-2.03.29-2.81.29-3.05,0-3.52-.37-3.58-2.06-.03-.71,0-2.96,0-3.79v-1.93c0-.15.03-.24.18-.24.72,0,3.67.02,4.24.07,1.1.1,1.52.47,1.67.95.09.32.09.64.12.88,0,.12.06.22.27.22.27,0,.27-.27.27-.47,0-.17.06-1.15.12-1.64.09-1.25.24-1.64.24-1.79s-.09-.2-.21-.2c-.15,0-.27.12-.48.32-.27.24-.72.32-1.43.37-.69.05-4.12.05-4.78.05-.18,0-.21-.1-.21-.27v-6.19c0-.17.06-.24.21-.24.6,0,3.73.05,4.24.1,1.49.15,1.79.44,2,.88.15.29.18.71.18.88,0,.22.06.34.27.34s.27-.15.3-.27c.06-.29.12-1.37.15-1.61.09-1.13.24-1.42.24-1.59,0-.12-.03-.22-.18-.22s-.33.07-.48.1c-.24.05-.72.1-1.28.15-.57.02-6.51.02-7.47.02-.84,0-2.72-.07-4.3-.07-.45,0-.66.05-.66.22s.18.22.51.22c.42,0,.93.02,1.16.07.99.17,1.22.56,1.28,1.39.06.78.06,1.47.06,5.19v4.3h0,0Z"/>
    </g>
  </g>
</svg>